<?xml version="1.0" encoding="UTF-8" standalone="no"?>
<!-- Created with Inkscape (http://www.inkscape.org/) -->

<svg
   version="1.1"
   id="svg1"
   width="1096"
   height="756"
   viewBox="0 0 1096 756"
   sodipodi:docname="蒔在招牌修改版.ai"
   xmlns:inkscape="http://www.inkscape.org/namespaces/inkscape"
   xmlns:sodipodi="http://sodipodi.sourceforge.net/DTD/sodipodi-0.dtd"
   xmlns="http://www.w3.org/2000/svg"
   xmlns:svg="http://www.w3.org/2000/svg">
  <defs
     id="defs1">
    <clipPath
       clipPathUnits="userSpaceOnUse"
       id="clipPath2">
      <path
         d="M 0,567 H 822 V 0 H 0 Z"
         transform="translate(-102.4633,-200.8417)"
         id="path2" />
    </clipPath>
    <clipPath
       clipPathUnits="userSpaceOnUse"
       id="clipPath4">
      <path
         d="M 0,567 H 822 V 0 H 0 Z"
         transform="translate(-315.92531,-252.5644)"
         id="path4" />
    </clipPath>
    <clipPath
       clipPathUnits="userSpaceOnUse"
       id="clipPath6">
      <path
         d="M 0,567 H 822 V 0 H 0 Z"
         transform="translate(-547.39702,-400.88861)"
         id="path6" />
    </clipPath>
    <clipPath
       clipPathUnits="userSpaceOnUse"
       id="clipPath8">
      <path
         d="M 0,567 H 822 V 0 H 0 Z"
         transform="translate(-307.83151,-352.19171)"
         id="path8" />
    </clipPath>
    <clipPath
       clipPathUnits="userSpaceOnUse"
       id="clipPath10">
      <path
         d="M 0,567 H 822 V 0 H 0 Z"
         transform="translate(-610.49482,-254.58291)"
         id="path10" />
    </clipPath>
    <clipPath
       clipPathUnits="userSpaceOnUse"
       id="clipPath12">
      <path
         d="M 0,567 H 822 V 0 H 0 Z"
         transform="translate(-529.95892,-280.32921)"
         id="path12" />
    </clipPath>
    <clipPath
       clipPathUnits="userSpaceOnUse"
       id="clipPath14">
      <path
         d="M 0,567 H 822 V 0 H 0 Z"
         transform="translate(-234.4987,-133.5381)"
         id="path14" />
    </clipPath>
    <clipPath
       clipPathUnits="userSpaceOnUse"
       id="clipPath16">
      <path
         d="M 0,567 H 822 V 0 H 0 Z"
         transform="translate(-696.86632,-95.027102)"
         id="path16" />
    </clipPath>
    <clipPath
       clipPathUnits="userSpaceOnUse"
       id="clipPath18">
      <path
         d="M 0,567 H 822 V 0 H 0 Z"
         transform="translate(-541.40701,-89.651305)"
         id="path18" />
    </clipPath>
    <clipPath
       clipPathUnits="userSpaceOnUse"
       id="clipPath20">
      <path
         d="M 0,567 H 822 V 0 H 0 Z"
         transform="translate(-593.74931,-113.8246)"
         id="path20" />
    </clipPath>
    <clipPath
       clipPathUnits="userSpaceOnUse"
       id="clipPath22">
      <path
         d="M 0,567 H 822 V 0 H 0 Z"
         transform="translate(-429.71601,-87.039205)"
         id="path22" />
    </clipPath>
    <clipPath
       clipPathUnits="userSpaceOnUse"
       id="clipPath24">
      <path
         d="M 0,567 H 822 V 0 H 0 Z"
         transform="translate(-635.80121,-86.8858)"
         id="path24" />
    </clipPath>
    <clipPath
       clipPathUnits="userSpaceOnUse"
       id="clipPath26">
      <path
         d="M 0,567 H 822 V 0 H 0 Z"
         transform="translate(-735.61602,-81.5623)"
         id="path26" />
    </clipPath>
    <clipPath
       clipPathUnits="userSpaceOnUse"
       id="clipPath28">
      <path
         d="M 0,567 H 822 V 0 H 0 Z"
         transform="translate(-488.27551,-118.1358)"
         id="path28" />
    </clipPath>
    <clipPath
       clipPathUnits="userSpaceOnUse"
       id="clipPath30">
      <path
         d="M 0,567 H 822 V 0 H 0 Z"
         id="path30" />
    </clipPath>
    <clipPath
       clipPathUnits="userSpaceOnUse"
       id="clipPath32">
      <path
         d="M 0,567 H 822 V 0 H 0 Z"
         id="path32" />
    </clipPath>
    <clipPath
       clipPathUnits="userSpaceOnUse"
       id="clipPath34">
      <path
         d="M 0,567 H 822 V 0 H 0 Z"
         transform="translate(-480.87061,-128.4289)"
         id="path34" />
    </clipPath>
    <clipPath
       clipPathUnits="userSpaceOnUse"
       id="clipPath36">
      <path
         d="M 0,567 H 822 V 0 H 0 Z"
         transform="translate(-728.34382,-128.45961)"
         id="path36" />
    </clipPath>
  </defs>
  <sodipodi:namedview
     id="namedview1"
     pagecolor="#ffffff"
     bordercolor="#000000"
     borderopacity="0.25"
     inkscape:showpageshadow="2"
     inkscape:pageopacity="0.0"
     inkscape:pagecheckerboard="0"
     inkscape:deskcolor="#d1d1d1">
    <inkscape:page
       x="0"
       y="0"
       inkscape:label="1"
       id="page1"
       width="1096"
       height="756"
       margin="81.675064 112.928 39.030666 111.7516"
       bleed="0" />
  </sodipodi:namedview>
  <g
     id="layer-MC0"
     inkscape:groupmode="layer"
     inkscape:label="圖層 1">
    <path
       id="path1"
       d="M 0,0 C 12.092,14.126 21.656,29.999 30.706,46.21 18.098,32.412 8.033,16.926 0,0 m 143.098,269.935 c -8.789,-2.156 -16.957,-4.16 -25.125,-6.163 -0.302,-0.412 -0.605,-0.824 -0.907,-1.235 0.861,-0.401 1.887,-0.622 2.553,-1.234 2.542,-2.337 3.054,-5.772 1.302,-8.486 -1.873,-2.902 -4.634,-3.743 -7.838,-2.785 -4.973,1.486 -7.085,5.592 -8.899,10.447 -5.768,-1.164 -11.583,-2.374 -17.412,-3.508 -19.48,-3.79 -39.088,-5.938 -58.814,-2.496 -7.438,1.298 -14.728,3.691 -21.912,6.1 -4.779,1.602 -6.431,5.607 -4.774,9.441 1.614,3.735 5.5,4.765 10.192,2.766 15.252,-6.497 31.362,-7.566 47.479,-5.997 13.749,1.338 27.333,4.363 40.987,6.66 0.478,0.081 0.923,0.362 1.749,0.698 -0.208,4.619 -0.549,9.333 -0.597,14.049 -0.056,5.37 0.056,10.745 0.271,16.111 0.184,4.608 2.91,7.285 6.925,7.132 3.951,-0.151 6.41,-3.118 6.444,-7.673 0.061,-8.242 0.157,-16.483 0.257,-24.725 0.007,-0.612 0.164,-1.222 0.297,-2.145 11.234,2.84 22.366,5.573 33.429,8.563 1.252,0.339 2.491,1.954 3.097,3.271 6.314,13.714 12.497,27.489 18.718,41.245 0.514,1.137 0.955,2.32 1.586,3.389 1.927,3.262 5.454,4.382 8.698,2.845 3.23,-1.531 4.775,-5.011 3.327,-8.475 -2.743,-6.559 -5.717,-13.023 -8.628,-19.512 -2.552,-5.688 -5.148,-11.356 -8.061,-17.774 5.525,1.482 10.474,2.756 15.393,4.14 8.887,2.501 17.75,5.085 26.635,7.595 2.8,0.79 5.869,0.883 7.487,-1.729 1.169,-1.889 2.084,-5.08 1.25,-6.773 -1.028,-2.087 -3.774,-3.951 -6.149,-4.65 -16.035,-4.721 -32.151,-9.176 -48.289,-13.538 -2.677,-0.724 -4.137,-2.004 -5.292,-4.511 C 127.06,202.725 94.873,134.847 59.272,68.644 58.804,67.773 58.312,66.366 58.687,65.671 64.464,54.963 64.403,43.594 62.471,32.089 60.458,20.1 57.126,8.479 51.442,-2.352 47.92,-9.064 43.526,-15.074 37.161,-19.421 c -5.103,-3.485 -10.745,-5.256 -16.922,-5.119 -4.101,0.091 -7.057,3.062 -6.994,6.801 0.062,3.618 2.827,6.58 6.802,6.575 7.158,-0.009 11.976,3.804 15.835,9.194 6.754,9.436 9.897,20.34 12.409,31.471 1.514,6.703 2.593,13.434 1.114,21.161 C 48.346,48.914 47.646,47.703 46.894,46.525 36.36,30.007 26.133,13.278 15.115,-2.911 11.039,-8.9 5.228,-13.755 -0.063,-18.846 c -1.822,-1.754 -4.336,-3.027 -6.76,-3.871 -6.048,-2.106 -11.682,1.643 -11.821,8.025 -0.069,3.161 0.489,6.556 1.657,9.49 10.433,26.205 25.342,49.486 45.951,68.917 4.324,4.077 9.364,6.971 15.249,8.414 1.26,0.309 2.553,1.806 3.207,3.076 15.146,29.4 30.586,58.658 45.181,88.331 16.575,33.701 32.38,67.78 48.51,101.699 0.627,1.319 1.142,2.692 1.987,4.7"
       style="fill:#000000;fill-opacity:1;fill-rule:nonzero;stroke:none"
       transform="matrix(1.3333333,0,0,-1.3333333,136.61773,488.21107)"
       clip-path="url(#clipPath2)" />
    <path
       id="path3"
       d="m 0,0 c -9.596,-4.75 -18.691,-9.381 -27.897,-13.78 -19.249,-9.198 -38.564,-18.257 -57.831,-27.417 -2.816,-1.338 -5.831,-1.968 -7.959,0.445 -1.454,1.65 -2.738,4.625 -2.236,6.512 0.559,2.102 2.911,4.297 5.029,5.326 19.303,9.372 38.798,18.349 58.088,27.747 14.131,6.885 28.153,14.015 41.993,21.465 5.994,3.226 11.418,7.514 17.076,11.356 1.443,0.98 2.723,2.211 4.199,3.132 3.268,2.041 6.643,1.682 8.871,-0.799 2.163,-2.41 2.336,-6.677 -0.049,-9.307 C 37.12,22.292 34.539,20.278 32.119,18.125 26.817,13.407 21.275,8.926 16.312,3.877 14.594,2.128 13.718,-0.955 13.443,-3.533 11.511,-21.661 9.919,-39.825 8.061,-57.961 5.095,-86.909 1.928,-115.855 -6.991,-143.728 c -2.57,-8.033 -5.936,-15.915 -9.841,-23.395 -6.734,-12.896 -16.983,-21.098 -32.125,-22.805 -13.129,-1.48 -26.114,-2.781 -38.878,1.77 -7.506,2.675 -13.871,6.886 -17.419,14.384 -1.468,3.104 -0.762,5.914 1.848,8.072 2.361,1.953 5.024,2.081 7.66,0.478 0.726,-0.441 1.5,-1.043 1.887,-1.767 4.034,-7.553 11.297,-9.43 18.828,-10.475 10.407,-1.445 20.706,-0.067 30.851,2.27 5.812,1.34 9.674,5.558 12.923,10.248 6.93,10.004 10.675,21.387 13.802,32.984 5.965,22.13 8.967,44.77 11.284,67.511 2.037,20.001 3.919,40.018 5.862,60.029 C -0.182,-3.107 -0.123,-1.785 0,0"
       style="fill:#000000;fill-opacity:1;fill-rule:nonzero;stroke:none"
       transform="matrix(1.3333333,0,0,-1.3333333,421.23373,419.24747)"
       clip-path="url(#clipPath4)" />
    <path
       id="path5"
       d="m 0,0 c 10.423,5.542 21.667,9.557 30.576,17.595 2.022,1.825 3.87,3.917 5.462,6.128 2.252,3.129 1.849,3.757 -1.749,5.391 -3.408,1.547 -6.355,0.577 -9.16,-1.287 C 14.419,20.71 7.159,10.448 0,0 m -35.307,-31.515 c -2.812,-0.667 -4.806,-1.288 -6.847,-1.593 -3.965,-0.593 -7.971,-1.206 -11.181,2.247 -1.898,2.041 -2.873,4.54 -1.268,6.776 1.305,1.817 3.696,4.049 5.596,4.04 8.649,-0.04 15.795,4.256 23.369,7.281 1.305,0.521 2.28,2.204 3.109,3.536 9.257,14.866 18.811,29.512 31.737,41.552 2.905,2.706 6.141,5.129 9.487,7.273 7.598,4.869 15.454,4.984 23.416,0.676 C 50.858,35.54 53.506,27.076 48.567,18.421 43.995,10.41 37.306,4.353 29.27,0.039 15.644,-7.275 1.799,-14.181 -11.92,-21.324 c -1.377,-0.717 -2.992,-1.615 -3.706,-2.877 -16.825,-29.72 -31.506,-60.378 -40.245,-93.578 -0.634,-2.408 -0.934,-4.903 -1.519,-7.326 -1.005,-4.161 -4.187,-6.42 -7.869,-5.705 -3.568,0.693 -6.096,3.843 -5.182,7.832 2.142,9.343 4.345,18.718 7.336,27.812 6.677,20.303 15.594,39.686 25.368,58.676 0.721,1.401 1.385,2.831 2.43,4.975"
       style="fill:#000000;fill-opacity:1;fill-rule:nonzero;stroke:none"
       transform="matrix(1.3333333,0,0,-1.3333333,729.86267,221.48187)"
       clip-path="url(#clipPath6)" />
    <path
       id="path7"
       d="m 0,0 c 6.028,3.852 11.797,7.497 17.521,11.211 3.979,2.581 7.874,5.293 11.849,7.881 3.807,2.48 7.711,1.94 9.92,-1.278 2.178,-3.171 1.386,-7.287 -2.313,-9.733 C 25.942,0.785 14.834,-6.403 3.664,-13.491 1.649,-14.769 0.785,-16.008 0.796,-18.512 0.845,-29.521 0.123,-40.473 -3.387,-51.705 c 2.459,0.725 4.495,1.4 6.571,1.922 3.666,0.922 7.024,-0.758 8.227,-4.019 1.268,-3.441 -0.31,-7.251 -3.955,-8.583 -20.055,-7.324 -38.026,-18.67 -56.485,-29.077 -1.522,-0.858 -2.974,-1.843 -4.516,-2.661 -3.685,-1.955 -7.592,-1.01 -9.497,2.23 -1.933,3.29 -0.959,7.148 2.718,9.319 8.486,5.012 16.742,10.597 25.698,14.589 13.109,5.843 18.572,16.323 20.602,29.47 0.73,4.727 0.978,9.528 1.484,14.69 -7.087,-3.592 -13.327,-7.292 -19.982,-9.958 -5.239,-2.098 -10.932,-3.352 -16.54,-4.102 -2.353,-0.315 -5.325,1.191 -7.446,2.68 -2.545,1.786 -3.137,4.761 -1.677,7.731 1.511,3.074 4.083,3.972 7.444,3.783 2.871,-0.162 6.164,-0.528 8.599,0.621 9.341,4.406 18.449,9.317 27.525,14.258 0.888,0.483 1.455,2.512 1.328,3.737 -0.626,6.08 -1.485,12.139 -2.361,18.191 -0.638,4.407 1.334,7.699 5.258,8.48 3.848,0.767 7.049,-1.572 7.881,-6.044 C -1.583,10.561 -0.882,5.526 0,0"
       style="fill:#000000;fill-opacity:1;fill-rule:nonzero;stroke:none"
       transform="matrix(1.3333333,0,0,-1.3333333,410.442,286.41107)"
       clip-path="url(#clipPath8)" />
    <path
       id="path9"
       d="m 0,0 c 5.045,2.692 10.137,5.303 15.123,8.1 4.46,2.501 8.315,2.051 10.478,-1.474 2.142,-3.49 0.988,-7.549 -3.486,-9.947 -7.799,-4.179 -15.754,-8.078 -23.753,-11.863 -2.132,-1.009 -3.166,-2.126 -2.877,-4.464 0.138,-1.11 0.01,-2.251 0.098,-3.37 0.651,-8.36 4.552,-12.39 12.929,-12.322 4.687,0.038 9.53,0.668 14.016,1.998 21.274,6.308 42.46,12.913 63.644,19.518 2.473,0.771 4.761,2.161 7.104,3.326 3.57,1.776 7.255,0.948 9.199,-2.124 2.046,-3.233 1.325,-7.456 -2.423,-9.346 -5.992,-3.02 -12.142,-5.958 -18.538,-7.9 -20.637,-6.267 -41.359,-12.279 -62.186,-17.876 -4.795,-1.289 -10.195,-1.098 -15.218,-0.598 -11.606,1.154 -19.321,8.79 -21.355,20.29 -0.325,1.839 -0.57,3.691 -0.917,5.961 -1.96,-0.741 -3.746,-1.478 -5.572,-2.093 -4.066,-1.369 -7.731,0.061 -9.131,3.498 -1.492,3.662 0.233,7.375 4.303,9.055 2.881,1.19 5.766,2.409 8.737,3.332 2.438,0.758 3.288,2.316 4.076,4.645 3.71,10.967 7.674,21.849 11.66,32.719 1.189,3.241 3.649,5.105 7.235,4.768 C 8.015,33.376 10.255,28.616 8.219,23.636 5.343,16.599 2.593,9.511 -0.197,2.439 -0.411,1.894 -0.513,1.304 -0.667,0.735 -0.445,0.49 -0.222,0.245 0,0"
       style="fill:#000000;fill-opacity:1;fill-rule:nonzero;stroke:none"
       transform="matrix(1.3333333,0,0,-1.3333333,813.99307,416.55613)"
       clip-path="url(#clipPath10)" />
    <path
       id="path11"
       d="m 0,0 c -1.368,-27.596 -2.28,-55.21 -8.032,-82.343 -1.231,-5.811 -3.343,-11.485 -5.541,-17.028 -1.7,-4.288 -5.493,-5.67 -9.074,-4.061 -3.77,1.694 -4.944,5.453 -2.987,9.791 5.008,11.103 6.424,23.034 7.886,34.916 3.422,27.825 4.035,55.809 4.384,83.802 0.011,0.874 -0.026,1.752 0.036,2.623 0.274,3.859 2.773,6.359 6.42,6.459 3.615,0.099 6.506,-2.243 6.826,-6.055 C 0.21,24.63 -0.003,21.114 -0.001,17.616 0.003,11.744 0,5.872 0,0"
       style="fill:#000000;fill-opacity:1;fill-rule:nonzero;stroke:none"
       transform="matrix(1.3333333,0,0,-1.3333333,706.61187,382.22773)"
       clip-path="url(#clipPath12)" />
    <path
       id="path13"
       d="m 0,0 c -4.888,0.31 -9.499,2.67 -13.675,5.968 -9.358,7.389 -16.07,16.969 -22.032,27.108 -1.993,3.39 -0.776,7.265 2.375,9.095 3.187,1.851 6.804,0.912 9.144,-2.337 4.216,-5.855 8.18,-11.921 12.762,-17.476 3.784,-4.588 8.073,-8.719 14.74,-9.26 3.365,-0.273 5.529,-4 5.079,-7.228 C 7.875,2.163 4.809,-0.141 0,0"
       style="fill:#000000;fill-opacity:1;fill-rule:nonzero;stroke:none"
       transform="matrix(1.3333333,0,0,-1.3333333,312.66493,577.9492)"
       clip-path="url(#clipPath14)" />
    <path
       id="path15"
       d="m 0,0 c 0.003,5.217 -1.366,6.505 -6.844,6.437 -4.556,-0.056 -7.402,-3.423 -7.474,-8.842 -0.058,-4.448 2.352,-7.699 5.782,-7.8 C -4.122,-10.334 -0.003,-5.41 0,0 m -0.38,9.501 c 1.524,9.421 -2.266,11.426 -15.04,7.691 -0.391,1.215 -0.785,2.441 -1.494,4.645 4.196,0.678 8.043,1.83 11.88,1.796 C 0.779,23.582 4.841,18.709 5.061,12.243 5.218,7.627 4.992,2.998 5.146,-1.619 c 0.131,-3.966 0.558,-7.922 0.889,-12.34 -0.956,-0.182 -2.353,-0.448 -3.81,-0.725 -0.623,1.498 -1.137,2.733 -1.667,4.005 -6.6,-4.635 -11.884,-5.027 -16.085,-1.289 -4.086,3.635 -5.099,10.64 -2.357,16.296 2.866,5.909 7.477,7.272 17.504,5.173"
       style="fill:#000000;fill-opacity:1;fill-rule:nonzero;stroke:none"
       transform="matrix(1.3333333,0,0,-1.3333333,929.15507,629.2972)"
       clip-path="url(#clipPath16)" />
    <path
       id="path17"
       d="m 0,0 c -2.494,-4.93 -5.84,-8.351 -11.35,-9.04 -5.596,-0.7 -9.547,1.789 -10.218,7.335 -0.7,5.789 -0.592,11.678 -0.776,17.525 -0.082,2.608 -0.014,5.22 -0.014,8.242 h -7.497 c -0.094,1.535 -0.164,2.682 -0.254,4.155 2.619,0.167 4.934,0.314 7.675,0.488 v 10.93 h 5.172 V 28.542 h 12.86 v -4.293 h -12.66 c 0,-8.441 -0.177,-16.511 0.157,-24.559 0.063,-1.508 1.893,-3.686 3.39,-4.231 2.881,-1.05 5.5,0.631 6.944,3.128 C -4.849,1.562 -2.913,1.869 0,0"
       style="fill:#000000;fill-opacity:1;fill-rule:nonzero;stroke:none"
       transform="matrix(1.3333333,0,0,-1.3333333,721.876,636.46493)"
       clip-path="url(#clipPath18)" />
    <path
       id="path19"
       d="M 0,0 C 0.09,1.731 0.146,2.816 0.213,4.113 2.754,4.247 5.077,4.37 7.686,4.508 V 15.389 H 12.88 V 4.4 H 25.796 V 0.194 H 12.962 c 0,-4.664 -0.002,-8.969 0,-13.273 0.002,-2.994 -0.018,-5.989 0.024,-8.982 0.039,-2.788 0.027,-5.777 3.416,-6.711 3.199,-0.883 5.81,0.715 7.277,3.335 1.792,3.201 3.787,2.842 6.45,1.322 -2.471,-5.164 -6.068,-8.64 -11.895,-9.158 -5.256,-0.468 -8.993,2 -9.627,7.211 -0.704,5.787 -0.616,11.674 -0.804,17.52 C 7.715,-5.828 7.788,-3.109 7.788,0 Z"
       style="fill:#000000;fill-opacity:1;fill-rule:nonzero;stroke:none"
       transform="matrix(1.3333333,0,0,-1.3333333,791.66573,604.23387)"
       clip-path="url(#clipPath20)" />
    <path
       id="path21"
       d="m 0,0 c 0.771,1.175 1.571,2.393 2.141,3.262 3.517,-1.807 6.661,-3.845 10.095,-5.074 3.823,-1.369 7.349,0.372 8.446,3.435 1.116,3.117 -0.497,6.344 -4.207,8.108 -2.925,1.391 -6.03,2.429 -8.866,3.971 -4.382,2.381 -6.104,5.99 -5.283,10.185 0.749,3.835 4.287,6.972 8.726,7.67 5.103,0.802 9.597,-0.622 13.987,-4.024 -0.657,-1.251 -1.308,-2.489 -1.877,-3.572 -2.933,1.222 -5.487,2.572 -8.204,3.343 -3.229,0.915 -6.528,-0.81 -7.387,-3.52 -1.086,-3.426 0.745,-5.529 3.569,-6.899 2.687,-1.305 5.561,-2.226 8.232,-3.558 C 24.989,10.524 27.175,5.97 25.571,0.841 24.031,-4.087 18.762,-7.129 13.037,-6.397 8.095,-5.765 3.808,-3.692 0,0"
       style="fill:#000000;fill-opacity:1;fill-rule:nonzero;stroke:none"
       transform="matrix(1.3333333,0,0,-1.3333333,572.95467,639.94773)"
       clip-path="url(#clipPath22)" />
    <path
       id="path23"
       d="m 0,0 c 0.925,1.401 1.668,2.525 2.358,3.569 3.022,-1.721 5.747,-3.686 8.773,-4.901 4.439,-1.782 8.298,-0.358 9.601,2.976 1.343,3.44 -0.516,6.666 -5.01,8.666 -2.731,1.216 -5.583,2.211 -8.179,3.664 -4.199,2.351 -5.811,5.782 -5.095,9.921 0.667,3.854 4.176,7.044 8.586,7.805 4.997,0.862 9.613,-0.478 14.052,-4.208 -0.581,-1.109 -1.192,-2.276 -1.834,-3.503 -2.441,1.133 -4.601,2.381 -6.919,3.156 -3.92,1.312 -7.414,-0.054 -8.595,-3.046 -1.198,-3.038 0.261,-5.619 4.37,-7.492 2.494,-1.136 5.132,-1.973 7.569,-3.212 C 25.171,10.602 27.336,5.877 25.661,0.791 24.12,-3.887 18.826,-6.934 13.33,-6.265 8.347,-5.659 4.049,-3.563 0,0"
       style="fill:#000000;fill-opacity:1;fill-rule:nonzero;stroke:none"
       transform="matrix(1.3333333,0,0,-1.3333333,847.73493,640.15227)"
       clip-path="url(#clipPath24)" />
    <path
       id="path25"
       d="m 0,0 c -3.689,-1 -5.029,-0.029 -4.936,3.689 0.235,9.324 0.078,18.658 0.078,28.414 h -10.161 c -0.098,1.56 -0.171,2.72 -0.263,4.186 H 0 Z"
       style="fill:#000000;fill-opacity:1;fill-rule:nonzero;stroke:none"
       transform="matrix(1.3333333,0,0,-1.3333333,980.82133,647.25027)"
       clip-path="url(#clipPath26)" />
    <path
       id="path27"
       d="m 0,0 v -36.613 h -4.936 v 32.292 h -9.674 c -1.087,4.034 -0.967,4.263 2.518,4.309 C -8.129,0.04 -4.165,0 0,0"
       style="fill:#000000;fill-opacity:1;fill-rule:nonzero;stroke:none"
       transform="matrix(1.3333333,0,0,-1.3333333,651.034,598.4856)"
       clip-path="url(#clipPath28)" />
    <path
       id="path29"
       d="m 680.259,133.091 h 20.678 v -4.574 h -20.678 z"
       style="fill:#000000;fill-opacity:1;fill-rule:nonzero;stroke:none"
       transform="matrix(1.3333333,0,0,-1.3333333,0,756)"
       clip-path="url(#clipPath30)" />
    <path
       id="path31"
       d="m 558.803,107.841 h 17.205 v -3.801 h -17.205 z"
       style="fill:#000000;fill-opacity:1;fill-rule:nonzero;stroke:none"
       transform="matrix(1.3333333,0,0,-1.3333333,0,756)"
       clip-path="url(#clipPath32)" />
    <path
       id="path33"
       d="M 0,0 C 1.609,1.133 3.114,2.973 4.852,3.229 7.286,3.589 8.966,1.82 8.969,-0.887 8.971,-3.597 7.289,-5.365 4.855,-5.009 3.117,-4.755 1.611,-2.914 0.001,-1.781 0.001,-1.188 0,-0.594 0,0"
       style="fill:#000000;fill-opacity:1;fill-rule:nonzero;stroke:none"
       transform="matrix(1.3333333,0,0,-1.3333333,641.1608,584.76147)"
       clip-path="url(#clipPath34)" />
    <path
       id="path35"
       d="M 0,0 C 1.611,1.124 3.123,2.958 4.858,3.201 7.288,3.542 8.969,1.773 8.96,-0.938 8.952,-3.655 7.241,-5.402 4.823,-5.044 3.091,-4.789 1.595,-2.933 -0.006,-1.792 -0.004,-1.194 -0.002,-0.597 0,0"
       style="fill:#000000;fill-opacity:1;fill-rule:nonzero;stroke:none"
       transform="matrix(1.3333333,0,0,-1.3333333,971.12507,584.72053)"
       clip-path="url(#clipPath36)" />
  </g>
</svg>
