<svg width="93" height="93" viewBox="0 0 93 93" fill="none" xmlns="http://www.w3.org/2000/svg">
<path d="M31.9688 23.8958H35.1979C40.5446 23.8958 44.8854 28.2367 44.8854 33.5833C44.8854 38.93 40.5446 43.2708 35.1979 43.2708H25.5104V30.3542C25.5104 26.7896 28.4042 23.8958 31.9688 23.8958Z" fill="#33A6B8"/>
<path d="M25.5104 49.7292H31.9528C39.0906 49.7292 44.8854 55.524 44.8854 62.6618V69.1042H25.5104V49.7292Z" fill="#33A6B8"/>
<path d="M57.8021 23.8958H67.3673C67.4349 23.8958 67.4896 23.9505 67.4896 24.0181V53.0806C67.4896 61.9242 60.3096 69.1042 51.466 69.1042C51.3984 69.1042 51.3438 69.0495 51.3438 68.9819V30.3542C51.3438 26.7896 54.2375 23.8958 57.8021 23.8958Z" fill="#33A6B8"/>
</svg>
