<svg width="59" height="80" viewBox="0 0 59 80" fill="none" xmlns="http://www.w3.org/2000/svg">
<g clip-path="url(#clip0_26_61)">
<path d="M9.76923 0H14.1538C21.4136 0 27.3077 5.95318 27.3077 13.2857C27.3077 20.6182 21.4136 26.5714 14.1538 26.5714H1V8.85714C1 3.96859 4.9292 0 9.76923 0Z" fill="#33A6B8"/>
<path d="M1 35.4286H9.7476C19.4394 35.4286 27.3077 43.3758 27.3077 53.1647V62H1V35.4286Z" fill="#33A6B8"/>
<path d="M44.8461 0H57.834C57.9257 0 58 0.0749921 58 0.167697V40.0248C58 52.1532 48.2509 62 36.2429 62C36.1511 62 36.0769 61.925 36.0769 61.8323V8.85714C36.0769 3.96859 40.0061 0 44.8461 0Z" fill="#33A6B8"/>
<path d="M0.704497 78.0022C0.477003 78.0022 0.300879 77.94 0.176124 77.8156C0.0587081 77.6839 0 77.5046 0 77.2777V70.8891C0 70.655 0.0623773 70.4793 0.187132 70.3622C0.311887 70.2378 0.488011 70.1756 0.715505 70.1756H3.36838C4.21964 70.1756 4.87644 70.3805 5.33877 70.7903C5.80109 71.1928 6.03226 71.76 6.03226 72.4918C6.03226 72.9674 5.92585 73.3772 5.71303 73.7212C5.50755 74.0651 5.20667 74.3286 4.81039 74.5115C4.41411 74.6945 3.93344 74.7859 3.36838 74.7859L3.46745 74.6213H3.8307C4.13158 74.6213 4.3921 74.6945 4.61225 74.8408C4.83975 74.9872 5.03789 75.2177 5.20667 75.5324L6.03226 77.0582C6.12032 77.2119 6.16068 77.3619 6.15334 77.5082C6.146 77.6546 6.09096 77.7753 5.98823 77.8705C5.88549 77.9583 5.73505 78.0022 5.53691 78.0022C5.33877 78.0022 5.17732 77.9619 5.05257 77.8814C4.92781 77.7936 4.81773 77.6619 4.72233 77.4863L3.61055 75.4446C3.47845 75.1958 3.32068 75.0311 3.13721 74.9506C2.96109 74.8628 2.7336 74.8189 2.45473 74.8189H1.40899V77.2777C1.40899 77.5046 1.35029 77.6839 1.23287 77.8156C1.11545 77.94 0.939329 78.0022 0.704497 78.0022ZM1.40899 73.7761H3.12621C3.63256 73.7761 4.01417 73.6736 4.27101 73.4687C4.5352 73.2565 4.66729 72.9418 4.66729 72.5247C4.66729 72.1149 4.5352 71.8075 4.27101 71.6026C4.01417 71.3904 3.63256 71.2843 3.12621 71.2843H1.40899V73.7761Z" fill="#33A6B8"/>
<path d="M9.83931 78.0241C9.28158 78.0241 8.79724 77.9107 8.38628 77.6839C7.97533 77.457 7.6561 77.135 7.42861 76.7179C7.20112 76.2935 7.08737 75.7958 7.08737 75.225C7.08737 74.7933 7.14975 74.4091 7.2745 74.0724C7.40659 73.7285 7.59372 73.4358 7.8359 73.1943C8.07807 72.9455 8.36794 72.7589 8.70551 72.6345C9.04308 72.5027 9.42101 72.4369 9.83931 72.4369C10.397 72.4369 10.8814 72.5503 11.2923 72.7772C11.7033 73.004 12.0225 73.326 12.25 73.7431C12.4775 74.1603 12.5913 74.6542 12.5913 75.225C12.5913 75.6568 12.5252 76.0446 12.3931 76.3886C12.2684 76.7325 12.0849 77.0289 11.8427 77.2777C11.6006 77.5192 11.3107 77.7058 10.9731 77.8375C10.6355 77.9619 10.2576 78.0241 9.83931 78.0241ZM9.83931 76.9813C10.1108 76.9813 10.3493 76.9155 10.5548 76.7838C10.7603 76.652 10.9181 76.4581 11.0281 76.202C11.1456 75.9385 11.2043 75.6129 11.2043 75.225C11.2043 74.6396 11.0795 74.2042 10.83 73.9188C10.5805 73.6261 10.2503 73.4797 9.83931 73.4797C9.56779 73.4797 9.32928 73.5456 9.12381 73.6773C8.91833 73.8017 8.75688 73.9956 8.63946 74.2591C8.52939 74.5152 8.47435 74.8372 8.47435 75.225C8.47435 75.8031 8.5991 76.2422 8.84861 76.5423C9.09812 76.835 9.42835 76.9813 9.83931 76.9813Z" fill="#33A6B8"/>
<path d="M16.3468 80C15.9505 80 15.5652 79.9634 15.191 79.8902C14.8241 79.8171 14.4901 79.7036 14.1893 79.5499C14.0498 79.4768 13.9544 79.389 13.9031 79.2865C13.859 79.184 13.8444 79.0779 13.859 78.9682C13.8811 78.8657 13.9251 78.7742 13.9911 78.6937C14.0645 78.6132 14.1526 78.5584 14.2553 78.5291C14.3581 78.4998 14.4645 78.5145 14.5745 78.573C14.8974 78.734 15.202 78.8364 15.4882 78.8804C15.7817 78.9316 16.0312 78.9572 16.2367 78.9572C16.7284 78.9572 17.0953 78.8364 17.3375 78.595C17.587 78.3608 17.7118 78.0095 17.7118 77.5412V76.5532H17.8108C17.7007 76.9265 17.4696 77.2265 17.1173 77.4533C16.7724 77.6729 16.3798 77.7827 15.9395 77.7827C15.4552 77.7827 15.0332 77.6729 14.6736 77.4533C14.314 77.2265 14.0352 76.9118 13.837 76.5093C13.6389 76.1068 13.5398 75.6385 13.5398 75.1043C13.5398 74.7018 13.5949 74.3396 13.7049 74.0176C13.8223 73.6883 13.9838 73.4065 14.1893 73.1723C14.4021 72.9382 14.6553 72.7589 14.9488 72.6345C15.2497 72.5027 15.5799 72.4369 15.9395 72.4369C16.3945 72.4369 16.7908 72.5503 17.1283 72.7772C17.4733 72.9967 17.6971 73.2894 17.7998 73.6553L17.6897 73.9297V73.1504C17.6897 72.9235 17.7484 72.7516 17.8659 72.6345C17.9906 72.5174 18.1594 72.4588 18.3722 72.4588C18.5924 72.4588 18.7612 72.5174 18.8786 72.6345C18.996 72.7516 19.0547 72.9235 19.0547 73.1504V77.3765C19.0547 78.2473 18.8235 78.9023 18.3612 79.3414C17.8989 79.7805 17.2274 80 16.3468 80ZM16.3138 76.7398C16.6 76.7398 16.8458 76.674 17.0513 76.5423C17.2568 76.4105 17.4145 76.2239 17.5246 75.9824C17.642 75.7336 17.7007 75.4409 17.7007 75.1043C17.7007 74.5993 17.576 74.2042 17.3265 73.9188C17.077 73.6261 16.7394 73.4797 16.3138 73.4797C16.0276 73.4797 15.7817 73.5456 15.5762 73.6773C15.3708 73.809 15.2093 73.9956 15.0919 74.2371C14.9818 74.4786 14.9268 74.7677 14.9268 75.1043C14.9268 75.6092 15.0515 76.008 15.3011 76.3008C15.5506 76.5935 15.8881 76.7398 16.3138 76.7398Z" fill="#33A6B8"/>
<path d="M23.2433 78.0241C22.6342 78.0241 22.1095 77.9107 21.6692 77.6839C21.2289 77.457 20.8877 77.135 20.6455 76.7179C20.4107 76.3008 20.2932 75.8068 20.2932 75.236C20.2932 74.6798 20.407 74.1932 20.6345 73.7761C20.8693 73.3589 21.1885 73.0333 21.5922 72.7991C22.0031 72.5576 22.4691 72.4369 22.9902 72.4369C23.3718 72.4369 23.713 72.4991 24.0139 72.6235C24.3221 72.7479 24.5826 72.9272 24.7954 73.1614C25.0156 73.3955 25.1807 73.6809 25.2908 74.0176C25.4082 74.3469 25.4669 74.7201 25.4669 75.1372C25.4669 75.2689 25.4192 75.3714 25.3238 75.4446C25.2357 75.5104 25.1073 75.5434 24.9385 75.5434H21.405V74.753H24.4982L24.3221 74.9177C24.3221 74.581 24.2707 74.2993 24.168 74.0724C24.0726 73.8456 23.9295 73.6736 23.7387 73.5565C23.5552 73.4321 23.3241 73.3699 23.0452 73.3699C22.737 73.3699 22.4728 73.4431 22.2526 73.5895C22.0398 73.7285 21.8747 73.9297 21.7573 74.1932C21.6472 74.4493 21.5922 74.7567 21.5922 75.1153V75.1921C21.5922 75.7922 21.7316 76.2422 22.0105 76.5423C22.2967 76.835 22.715 76.9813 23.2653 76.9813C23.4561 76.9813 23.669 76.9594 23.9038 76.9155C24.146 76.8643 24.3735 76.7801 24.5863 76.663C24.7404 76.5752 24.8762 76.5386 24.9936 76.5532C25.111 76.5606 25.2027 76.6008 25.2688 76.674C25.3421 76.7472 25.3862 76.8386 25.4009 76.9484C25.4155 77.0509 25.3935 77.157 25.3348 77.2667C25.2834 77.3765 25.1917 77.4716 25.0596 77.5521C24.8028 77.7131 24.5056 77.8339 24.168 77.9144C23.8378 77.9876 23.5295 78.0241 23.2433 78.0241Z" fill="#33A6B8"/>
<path d="M27.3712 78.0022C27.1437 78.0022 26.9675 77.9437 26.8428 77.8266C26.7254 77.7022 26.6667 77.5265 26.6667 77.2997V73.1504C26.6667 72.9235 26.7254 72.7516 26.8428 72.6345C26.9602 72.5174 27.1253 72.4588 27.3381 72.4588C27.5509 72.4588 27.7161 72.5174 27.8335 72.6345C27.9509 72.7516 28.0096 72.9235 28.0096 73.1504V73.8419H27.8995C28.0023 73.4029 28.2041 73.0699 28.505 72.843C28.8058 72.6162 29.2058 72.4808 29.7048 72.4369C29.8589 72.4222 29.98 72.4625 30.0681 72.5576C30.1635 72.6454 30.2185 72.7845 30.2332 72.9748C30.2479 73.1577 30.2038 73.3077 30.1011 73.4248C30.0057 73.5346 29.8589 73.6004 29.6608 73.6224L29.4186 73.6443C28.971 73.6883 28.6334 73.8273 28.4059 74.0615C28.1784 74.2883 28.0646 74.6103 28.0646 75.0274V77.2997C28.0646 77.5265 28.0059 77.7022 27.8885 77.8266C27.7711 77.9437 27.5987 78.0022 27.3712 78.0022Z" fill="#33A6B8"/>
<path d="M33.9768 77.9912C33.7713 77.9985 33.6098 77.9437 33.4924 77.8266C33.375 77.7095 33.3163 77.5595 33.3163 77.3765C33.3163 77.2375 33.3603 77.1167 33.4484 77.0143C33.5291 76.9045 33.6502 76.846 33.8116 76.8386L34.1419 76.8167C34.4648 76.7947 34.7069 76.6959 34.8684 76.5203C35.0372 76.3374 35.1216 76.0776 35.1216 75.7409V70.8013C35.1216 70.5671 35.1803 70.3915 35.2977 70.2744C35.4225 70.15 35.5986 70.0878 35.8261 70.0878C36.0536 70.0878 36.226 70.15 36.3434 70.2744C36.4682 70.3915 36.5306 70.5671 36.5306 70.8013V75.73C36.5306 76.191 36.4462 76.5825 36.2774 76.9045C36.1159 77.2265 35.8738 77.479 35.5509 77.6619C35.228 77.8375 34.828 77.94 34.351 77.9693L33.9768 77.9912Z" fill="#33A6B8"/>
<path d="M38.8699 77.9912C38.6497 77.9912 38.4809 77.9254 38.3635 77.7936C38.2461 77.6619 38.1874 77.479 38.1874 77.2448V73.2162C38.1874 72.9748 38.2461 72.7918 38.3635 72.6674C38.4809 72.5357 38.6497 72.4698 38.8699 72.4698C39.09 72.4698 39.2588 72.5357 39.3762 72.6674C39.501 72.7918 39.5634 72.9748 39.5634 73.2162V77.2448C39.5634 77.479 39.5047 77.6619 39.3873 77.7936C39.2698 77.9254 39.0974 77.9912 38.8699 77.9912ZM38.8699 71.449C38.613 71.449 38.4112 71.3868 38.2645 71.2623C38.125 71.1306 38.0553 70.9513 38.0553 70.7245C38.0553 70.4903 38.125 70.311 38.2645 70.1866C38.4112 70.0622 38.613 70 38.8699 70C39.1341 70 39.3359 70.0622 39.4753 70.1866C39.6147 70.311 39.6845 70.4903 39.6845 70.7245C39.6845 70.9513 39.6147 71.1306 39.4753 71.2623C39.3359 71.3868 39.1341 71.449 38.8699 71.449Z" fill="#33A6B8"/>
<path d="M42.8754 78.0241C42.4865 78.0241 42.1379 77.951 41.8297 77.8046C41.5288 77.6509 41.2903 77.446 41.1142 77.1899C40.9454 76.9338 40.861 76.6447 40.861 76.3227C40.861 75.9276 40.9637 75.6165 41.1692 75.3897C41.3747 75.1555 41.7086 74.9872 42.1709 74.8847C42.6333 74.7823 43.2534 74.7311 44.0312 74.7311H44.5816V75.5214H44.0422C43.5873 75.5214 43.224 75.5434 42.9525 75.5873C42.681 75.6312 42.4865 75.708 42.3691 75.8178C42.259 75.9202 42.2039 76.0666 42.2039 76.2569C42.2039 76.4984 42.2883 76.6959 42.4571 76.8496C42.6259 77.0033 42.8607 77.0801 43.1616 77.0801C43.4038 77.0801 43.6166 77.0252 43.8001 76.9155C43.9909 76.7984 44.1413 76.6411 44.2514 76.4435C44.3615 76.2459 44.4165 76.019 44.4165 75.7629V74.5005C44.4165 74.1347 44.3358 73.8712 44.1743 73.7102C44.0129 73.5492 43.7414 73.4687 43.3598 73.4687C43.1469 73.4687 42.9158 73.4943 42.6663 73.5456C42.4241 73.5968 42.1673 73.6846 41.8957 73.809C41.7563 73.8749 41.6315 73.8932 41.5215 73.8639C41.4187 73.8346 41.338 73.7761 41.2793 73.6883C41.2206 73.5931 41.1912 73.4907 41.1912 73.3809C41.1912 73.2711 41.2206 73.165 41.2793 73.0626C41.338 72.9528 41.4371 72.8723 41.5765 72.8211C41.9141 72.682 42.237 72.5832 42.5452 72.5247C42.8607 72.4662 43.1469 72.4369 43.4038 72.4369C43.9322 72.4369 44.3651 72.5174 44.7027 72.6784C45.0476 72.8394 45.3045 73.0845 45.4733 73.4138C45.642 73.7358 45.7264 74.1529 45.7264 74.6652V77.2997C45.7264 77.5265 45.6714 77.7022 45.5613 77.8266C45.4512 77.9437 45.2935 78.0022 45.088 78.0022C44.8825 78.0022 44.7211 77.9437 44.6036 77.8266C44.4936 77.7022 44.4385 77.5265 44.4385 77.2997V76.7728H44.5266C44.4752 77.0289 44.3725 77.2521 44.2184 77.4424C44.0716 77.6253 43.8845 77.768 43.657 77.8705C43.4295 77.9729 43.169 78.0241 42.8754 78.0241Z" fill="#33A6B8"/>
<path d="M47.9156 78.0022C47.6954 78.0022 47.5267 77.9437 47.4093 77.8266C47.2918 77.7022 47.2331 77.5265 47.2331 77.2997V73.1504C47.2331 72.9235 47.2918 72.7516 47.4093 72.6345C47.5267 72.5174 47.6918 72.4588 47.9046 72.4588C48.1174 72.4588 48.2825 72.5174 48.3999 72.6345C48.5174 72.7516 48.5761 72.9235 48.5761 73.1504V73.8968L48.455 73.6224C48.6164 73.2345 48.8659 72.9418 49.2035 72.7442C49.5484 72.5393 49.9374 72.4369 50.3703 72.4369C50.8033 72.4369 51.1592 72.5174 51.4381 72.6784C51.717 72.8394 51.9261 73.0845 52.0655 73.4138C52.205 73.7358 52.2747 74.1456 52.2747 74.6432V77.2997C52.2747 77.5265 52.216 77.7022 52.0986 77.8266C51.9811 77.9437 51.8124 78.0022 51.5922 78.0022C51.372 78.0022 51.1996 77.9437 51.0748 77.8266C50.9574 77.7022 50.8987 77.5265 50.8987 77.2997V74.7091C50.8987 74.292 50.818 73.9883 50.6565 73.798C50.5024 73.6078 50.2603 73.5126 49.93 73.5126C49.5264 73.5126 49.2035 73.6407 48.9613 73.8968C48.7265 74.1456 48.6091 74.4786 48.6091 74.8957V77.2997C48.6091 77.768 48.3779 78.0022 47.9156 78.0022Z" fill="#33A6B8"/>
<path d="M56.2921 80C55.8958 80 55.5105 79.9634 55.1363 79.8902C54.7693 79.8171 54.4354 79.7036 54.1346 79.5499C53.9951 79.4768 53.8997 79.389 53.8484 79.2865C53.8043 79.184 53.7897 79.0779 53.8043 78.9682C53.8264 78.8657 53.8704 78.7742 53.9364 78.6937C54.0098 78.6132 54.0979 78.5584 54.2006 78.5291C54.3034 78.4998 54.4098 78.5145 54.5198 78.573C54.8427 78.734 55.1473 78.8364 55.4335 78.8804C55.727 78.9316 55.9765 78.9572 56.182 78.9572C56.6737 78.9572 57.0406 78.8364 57.2828 78.595C57.5323 78.3608 57.6571 78.0095 57.6571 77.5412V76.5532H57.7561C57.646 76.9265 57.4149 77.2265 57.0626 77.4533C56.7177 77.6729 56.3251 77.7827 55.8848 77.7827C55.4005 77.7827 54.9785 77.6729 54.6189 77.4533C54.2593 77.2265 53.9805 76.9118 53.7823 76.5093C53.5842 76.1068 53.4851 75.6385 53.4851 75.1043C53.4851 74.7018 53.5401 74.3396 53.6502 74.0176C53.7676 73.6883 53.9291 73.4065 54.1346 73.1723C54.3474 72.9382 54.6006 72.7589 54.8941 72.6345C55.195 72.5027 55.5252 72.4369 55.8848 72.4369C56.3398 72.4369 56.7361 72.5503 57.0736 72.7772C57.4185 72.9967 57.6424 73.2894 57.7451 73.6553L57.635 73.9297V73.1504C57.635 72.9235 57.6937 72.7516 57.8112 72.6345C57.9359 72.5174 58.1047 72.4588 58.3175 72.4588C58.5377 72.4588 58.7065 72.5174 58.8239 72.6345C58.9413 72.7516 59 72.9235 59 73.1504V77.3765C59 78.2473 58.7688 78.9023 58.3065 79.3414C57.8442 79.7805 57.1727 80 56.2921 80ZM56.2591 76.7398C56.5453 76.7398 56.7911 76.674 56.9966 76.5423C57.2021 76.4105 57.3598 76.2239 57.4699 75.9824C57.5873 75.7336 57.646 75.4409 57.646 75.1043C57.646 74.5993 57.5213 74.2042 57.2718 73.9188C57.0223 73.6261 56.6847 73.4797 56.2591 73.4797C55.9729 73.4797 55.727 73.5456 55.5215 73.6773C55.3161 73.809 55.1546 73.9956 55.0372 74.2371C54.9271 74.4786 54.8721 74.7677 54.8721 75.1043C54.8721 75.6092 54.9968 76.008 55.2463 76.3008C55.4959 76.5935 55.8334 76.7398 56.2591 76.7398Z" fill="#33A6B8"/>
</g>
<defs>
<clipPath id="clip0_26_61">
<rect width="59" height="80" fill="white"/>
</clipPath>
</defs>
</svg>
