<svg width="221" height="185" viewBox="0 0 221 185" fill="none" xmlns="http://www.w3.org/2000/svg">
<path d="M170.22 139.59C173.795 137.689 176.468 134.446 177.652 130.574C178.836 126.702 178.434 122.519 176.533 118.943C174.632 115.368 171.389 112.695 167.517 111.511C163.645 110.327 159.461 110.73 155.886 112.631C152.311 114.531 149.638 117.774 148.454 121.646C147.27 125.518 147.673 129.702 149.573 133.277C151.474 136.852 154.717 139.526 158.589 140.71C162.461 141.893 166.645 141.491 170.22 139.59ZM136.424 145.06C135.615 143.91 134.844 142.739 134.168 141.468C133.492 140.197 132.932 138.864 132.39 137.473L120.926 135.516C119.887 135.327 119.142 134.39 119.153 133.297L119.771 115.876C119.783 114.783 120.638 113.883 121.67 113.78L133.307 112.532C134.512 109.965 135.895 107.55 137.809 105.297L133.808 94.3337C133.645 93.8385 133.663 93.3016 133.858 92.8181C134.053 92.3346 134.413 91.9358 134.874 91.6923L150.279 83.5017C151.242 82.9898 152.419 83.253 153.065 84.0954L159.916 93.5438C162.854 93.2166 165.63 93.4203 168.432 93.8576L175.974 84.9076C176.637 84.1104 177.861 83.9042 178.774 84.5058L193.561 93.7361C194.512 94.3172 194.834 95.4799 194.409 96.4466L189.621 107.045C190.471 108.272 191.262 109.482 191.938 110.753C192.614 112.024 193.154 113.318 193.655 114.632L205.18 116.705C206.219 116.893 207.003 117.81 206.953 118.924L206.335 136.345C206.323 137.438 205.447 138.299 204.436 138.441L192.778 139.65C191.595 142.255 190.211 144.67 188.297 146.923L192.298 157.887C192.635 158.893 192.195 160.016 191.232 160.528L175.827 168.719C174.864 169.231 173.687 168.968 173.041 168.125L166.19 158.677C163.231 158.966 160.476 158.8 157.654 158.325L150.132 167.313C149.449 168.072 148.245 168.316 147.333 167.715L132.545 158.485C131.632 157.883 131.272 156.741 131.697 155.774L136.424 145.06Z" fill="#33A6B8"/>
<path fill-rule="evenodd" clip-rule="evenodd" d="M70.588 13.4274H56.3274C55.8549 13.4274 55.4018 13.616 55.0677 13.9518C54.7336 14.2875 54.5459 14.7429 54.5459 15.2177C54.5459 31.4022 37.1053 41.5265 23.1563 33.4253C22.7492 33.1939 22.2678 33.1328 21.8162 33.255C21.3646 33.3773 20.9789 33.6732 20.7425 34.0787L13.5988 46.5036C13.3658 46.9136 13.3034 47.3995 13.4251 47.8555C13.5469 48.3115 13.843 48.7007 14.249 48.9384C28.1979 57.0306 28.1979 77.2612 14.249 85.3624C13.8454 85.6001 13.551 85.9876 13.4294 86.4415C13.3077 86.8954 13.3685 87.3791 13.5988 87.7883L20.7425 100.213C20.9789 100.619 21.3646 100.915 21.8162 101.037C22.2678 101.159 22.7492 101.098 23.1563 100.867C37.1053 92.7654 54.5459 102.881 54.5459 119.056C54.5459 119.53 54.7323 119.984 55.0645 120.319C55.3967 120.655 55.8475 120.844 56.3185 120.847H70.5791C71.0516 120.847 71.5047 120.658 71.8388 120.322C72.1729 119.986 72.3606 119.531 72.3606 119.056C72.3606 102.872 89.8012 92.7565 103.75 100.849C104.158 101.083 104.642 101.146 105.095 101.023C105.549 100.901 105.936 100.603 106.173 100.195L113.299 87.7704C113.53 87.3623 113.592 86.8794 113.472 86.4256C113.352 85.9719 113.06 85.5836 112.657 85.3445C98.7086 77.2433 98.7086 57.0127 112.657 48.9115C113.059 48.674 113.351 48.288 113.473 47.8363C113.594 47.3846 113.535 46.9029 113.308 46.4946L106.173 34.0608C105.935 33.6544 105.547 33.3587 105.093 33.238C104.64 33.1173 104.157 33.1814 103.75 33.4163C89.8012 41.5175 72.3606 31.3933 72.3606 15.2088C72.3606 14.2241 71.5679 13.4274 70.588 13.4274ZM85.7216 15.2177C85.7216 6.80322 78.9521 0 70.588 0H56.3274C47.9544 0 41.1848 6.80322 41.1848 15.2177C41.1822 16.5512 40.8309 17.8605 40.1661 19.0146C39.5013 20.1686 38.5465 21.1268 37.3971 21.7932C36.2478 22.4596 34.9444 22.8107 33.6175 22.8114C32.2906 22.8121 30.9869 22.4623 29.8369 21.7971C26.3609 19.7853 22.2327 19.2417 18.3584 20.2856C14.484 21.3295 11.1801 23.8756 9.1718 27.365L2.0281 39.7899C-2.14946 47.0675 0.335696 56.3593 7.56847 60.5576C8.71894 61.2255 9.67424 62.186 10.3384 63.3424C11.0026 64.4989 11.3522 65.8107 11.3522 67.1459C11.3522 68.4812 11.0026 69.793 10.3384 70.9494C9.67424 72.1059 8.71894 73.0664 7.56847 73.7343C4.09626 75.7526 1.56275 79.0729 0.524021 82.9665C-0.514706 86.8601 0.0262278 91.0088 2.0281 94.502L9.1718 106.927C11.1801 110.416 14.484 112.962 18.3584 114.006C22.2327 115.05 26.3609 114.507 29.8369 112.495C30.9869 111.83 32.2906 111.48 33.6175 111.48C34.9444 111.481 36.2478 111.832 37.3971 112.499C38.5465 113.165 39.5013 114.123 40.1661 115.277C40.8309 116.431 41.1822 117.741 41.1848 119.074C41.1848 127.48 47.9544 134.292 56.3185 134.292H70.5791C74.5936 134.29 78.4429 132.685 81.2808 129.832C84.1186 126.978 85.7127 123.109 85.7127 119.074C85.7154 117.741 86.0667 116.431 86.7315 115.277C87.3962 114.123 88.3511 113.165 89.5005 112.499C90.6498 111.832 91.9532 111.481 93.2801 111.48C94.6069 111.48 95.9107 111.83 97.0607 112.495C100.537 114.507 104.665 115.05 108.539 114.006C112.414 112.962 115.717 110.416 117.726 106.927L124.869 94.502C126.871 91.0088 127.412 86.8601 126.374 82.9665C125.335 79.0729 122.801 75.7526 119.329 73.7343C118.181 73.0658 117.227 72.1056 116.565 70.95C115.902 69.7945 115.553 68.4842 115.553 67.1504C115.553 65.8167 115.902 64.5063 116.565 63.3508C117.227 62.1953 118.181 61.2351 119.329 60.5665C122.801 58.5482 125.335 55.2279 126.374 51.3343C127.412 47.4407 126.871 43.292 124.869 39.7988L117.735 27.365C115.726 23.8756 112.422 21.3295 108.548 20.2856C104.674 19.2417 100.546 19.7853 97.0696 21.7971C95.9196 22.4623 94.6158 22.8121 93.289 22.8114C91.9621 22.8107 90.6587 22.4596 89.5094 21.7932C88.36 21.1268 87.4051 20.1686 86.7404 19.0146C86.0756 17.8605 85.7243 16.5512 85.7216 15.2177ZM50.0922 67.137C50.0922 70.6982 51.4999 74.1135 54.0056 76.6316C56.5112 79.1497 59.9097 80.5644 63.4532 80.5644C66.9968 80.5644 70.3953 79.1497 72.9009 76.6316C75.4066 74.1135 76.8143 70.6982 76.8143 67.137C76.8143 63.5758 75.4066 60.1605 72.9009 57.6424C70.3953 55.1243 66.9968 53.7096 63.4532 53.7096C59.9097 53.7096 56.5112 55.1243 54.0056 57.6424C51.4999 60.1605 50.0922 63.5758 50.0922 67.137ZM36.7312 67.137C36.7312 74.2593 39.5465 81.0899 44.5579 86.1262C49.5692 91.1624 56.3661 93.9918 63.4532 93.9918C70.5404 93.9918 77.3372 91.1624 82.3486 86.1262C87.36 81.0899 90.1753 74.2593 90.1753 67.137C90.1753 60.0147 87.36 53.184 82.3486 48.1478C77.3372 43.1115 70.5404 40.2822 63.4532 40.2822C56.3661 40.2822 49.5692 43.1115 44.5579 48.1478C39.5465 53.184 36.7312 60.0147 36.7312 67.137Z" fill="#33A6B8"/>
</svg>
