<svg width="241" height="38" viewBox="0 0 241 38" fill="none" xmlns="http://www.w3.org/2000/svg">
<path d="M20.0925 37.269L7.22802 36.1421C4.24778 35.88 3.21818 35.0189 4.93668 34.2289L22.2677 26.2541C23.9862 25.4641 27.8313 25.0298 30.8116 25.2882L43.676 26.4151C46.6562 26.6772 47.6859 27.5383 45.9673 28.3283L28.6363 36.3031C26.9178 37.0931 23.0727 37.5274 20.0925 37.269Z" fill="#1A1A1A" stroke="#333333" stroke-miterlimit="10"/>
<path d="M16.6633 36.333L5.99282 35.4008C3.52177 35.1836 1.5 32.9859 1.5 30.5148V5.61712C1.5 3.14607 3.52177 1.30027 5.99282 1.51742L16.6633 2.44968C19.1343 2.66683 21.1561 4.86457 21.1561 7.33562V32.2333C21.1561 34.7044 19.1343 36.5502 16.6633 36.333Z" fill="white" stroke="#1A1A1A" stroke-width="3" stroke-miterlimit="10"/>
<path d="M59.978 27.9383C57.982 27.9383 56.2149 27.8467 54.6731 27.6636C53.135 27.4804 52.0244 27.2972 51.3489 27.114V26.3736L50.7993 23.0761C51.1123 23.37 51.6542 23.6791 52.4328 24.0112C53.2113 24.3394 54.2227 24.6218 55.4707 24.8508C56.7149 25.0798 58.1728 25.1943 59.8406 25.1943C61.0314 25.1943 61.9397 25.1103 62.5618 24.9462C63.1839 24.7821 63.6113 24.5531 63.8403 24.2592C64.0693 23.9654 64.1838 23.6181 64.1838 23.2135C64.1838 22.7365 64.0082 22.3586 63.6609 22.0724C63.3136 21.79 62.7259 21.5533 61.9015 21.3701C61.0772 21.187 59.9704 21.0114 58.5773 20.8473C56.8561 20.6107 55.4402 20.2977 54.3334 19.9122C53.2266 19.5268 52.4061 18.9925 51.8756 18.3055C51.3451 17.6185 51.0779 16.7178 51.0779 15.5996C51.0779 14.6646 51.3298 13.8516 51.8336 13.1532C52.3374 12.4586 53.135 11.909 54.2227 11.5045C55.3104 11.1038 56.7378 10.9015 58.4972 10.9015C60.4016 10.9015 62.0427 10.9931 63.4167 11.1763C64.7906 11.3595 65.7447 11.5427 66.2752 11.7259V12.4663L67.0996 15.2981C66.6607 15.0615 66.0233 14.8134 65.1913 14.5577C64.3593 14.302 63.3747 14.0845 62.2374 13.9127C61.1001 13.7371 59.8635 13.6532 58.5277 13.6532C57.6118 13.6532 56.8866 13.7257 56.3561 13.8745C55.8256 14.0196 55.4478 14.2333 55.2303 14.5081C55.0089 14.7829 54.9021 15.1111 54.9021 15.4966C54.9021 15.9927 55.0891 16.3896 55.4669 16.6911C55.8409 16.9926 56.4287 17.2331 57.2263 17.4048C58.024 17.5804 59.062 17.7407 60.3444 17.8857C62.3404 18.107 63.8937 18.4314 65.0005 18.8627C66.1073 19.294 66.8859 19.8512 67.3362 20.5382C67.7866 21.2251 68.0079 22.0724 68.0079 23.0799C68.0079 23.8661 67.8476 24.5684 67.527 25.1828C67.2065 25.7973 66.7179 26.3087 66.0577 26.7209C65.3974 27.1331 64.5654 27.4384 63.5579 27.6407C62.5503 27.8429 61.3596 27.9422 59.9856 27.9422L59.978 27.9383Z" fill="white"/>
<path d="M75.9116 27.6655C76.0413 27.6655 76.1673 27.5396 76.297 27.28C76.423 27.0243 76.4878 26.6007 76.4878 26.0168V14.7505C76.4878 14.3497 76.442 14.1093 76.3504 14.0368C76.2589 13.9643 75.9383 13.9261 75.3887 13.9261H73.3812C72.3202 13.9261 71.4615 14.0406 70.8127 14.2696C70.1639 14.4986 69.7365 14.7123 69.5342 14.9146L70.0838 11.9186V11.1782H86.7351V11.9186L87.2847 14.9146C87.0825 14.7123 86.6588 14.4986 86.0062 14.2696C85.3574 14.0406 84.4987 13.9261 83.4377 13.9261H81.4607C80.8921 13.9261 80.5639 13.9643 80.4723 14.0368C80.3807 14.1093 80.3349 14.3497 80.3349 14.7505V26.0168C80.3349 26.6045 80.3998 27.0243 80.5257 27.28C80.6555 27.5357 80.7814 27.6655 80.9112 27.6655H75.9116Z" fill="white"/>
<path d="M88.8382 27.6655C88.968 27.6655 89.0901 27.5396 89.2084 27.28C89.3268 27.0243 89.3878 26.6007 89.3878 26.0168V12.827C89.3878 12.2392 89.3229 11.8232 89.197 11.5751C89.0672 11.3271 88.9413 11.1935 88.8115 11.1782H97.8261C99.4748 11.1782 100.78 11.3805 101.742 11.7812C102.704 12.1858 103.391 12.7735 103.803 13.5521C104.215 14.3307 104.421 15.281 104.421 16.3954C104.421 17.1816 104.276 17.8991 103.982 18.5403C103.688 19.1814 103.253 19.7157 102.677 20.147C102.101 20.5783 101.41 20.8759 100.601 21.0401V21.124C101.498 21.437 102.364 22.0209 103.196 22.8834C104.028 23.746 104.768 24.6963 105.409 25.742C105.829 26.4213 106.215 26.906 106.562 27.1999C106.909 27.4938 107.177 27.6502 107.36 27.6655H100.818C101.04 27.6464 101.215 27.5243 101.353 27.2953C101.49 27.0663 101.44 26.6847 101.2 26.1542C100.814 25.2764 100.326 24.5054 99.7305 23.8452C99.1352 23.1849 98.4177 22.6773 97.5742 22.3186C96.7308 21.9598 95.7614 21.7843 94.6622 21.7843H94.3607C93.7921 21.7843 93.4638 21.8301 93.3722 21.9217C93.2806 22.0133 93.2348 22.2423 93.2348 22.6086V26.0168C93.2348 26.6045 93.2997 27.0243 93.4257 27.28C93.5516 27.5357 93.6814 27.6655 93.8111 27.6655H88.8382ZM94.3607 19.2005H96.9712C98.2345 19.2005 99.1619 18.9753 99.7458 18.5288C100.33 18.0823 100.624 17.3686 100.624 16.3992C100.624 15.903 100.513 15.4756 100.295 15.1092C100.074 14.7428 99.7229 14.4642 99.2382 14.2696C98.7535 14.0788 98.0894 13.9795 97.246 13.9795H94.3607C93.7921 13.9795 93.4638 14.0062 93.3722 14.0597C93.2806 14.1131 93.2348 14.3268 93.2348 14.6932V18.4563C93.2348 18.8227 93.2806 19.0364 93.3722 19.1013C93.4638 19.1662 93.7921 19.1967 94.3607 19.1967V19.2005Z" fill="white"/>
<path d="M108.898 27.6655C109.024 27.6655 109.154 27.5396 109.284 27.28C109.41 27.0243 109.474 26.6007 109.474 26.0168V12.827C109.474 12.2392 109.41 11.8232 109.284 11.5751C109.154 11.3271 109.028 11.1935 108.898 11.1782H124.752V11.9186L125.301 14.9146C124.844 14.7123 124.038 14.4986 122.882 14.2696C121.729 14.0406 120.336 13.9261 118.707 13.9261H114.447C113.898 13.9261 113.573 13.9681 113.47 14.0482C113.371 14.1322 113.318 14.365 113.318 14.7505V17.1396C113.318 17.5441 113.367 17.7808 113.47 17.8533C113.57 17.9258 113.886 17.964 114.417 17.964H118.565C119.626 17.964 120.485 17.9029 121.134 17.7846C121.783 17.6663 122.21 17.5403 122.412 17.4144C122.34 17.7273 122.256 18.0937 122.164 18.5135C122.073 18.9372 122 19.3379 121.943 19.7234C121.89 20.1088 121.859 20.4371 121.859 20.7118H114.413C113.883 20.7118 113.566 20.7424 113.467 20.8073C113.367 20.8721 113.314 21.1126 113.314 21.5362V24.036C113.314 24.4558 113.36 24.7039 113.451 24.7764C113.543 24.8489 113.863 24.8871 114.413 24.8871H122.023C123.084 24.8871 123.943 24.765 124.592 24.5169C125.24 24.2688 125.668 24.0284 125.87 23.7879L125.321 26.8106V27.6617H108.887L108.898 27.6655Z" fill="white"/>
<path d="M127.408 27.6655C127.534 27.6655 127.664 27.5396 127.793 27.28C127.919 27.0243 127.984 26.6007 127.984 26.0168V12.827C127.984 12.2392 127.919 11.8232 127.793 11.5751C127.664 11.3271 127.538 11.1935 127.408 11.1782H143.262V11.9186L143.811 14.9146C143.353 14.7123 142.548 14.4986 141.392 14.2696C140.239 14.0406 138.846 13.9261 137.216 13.9261H132.957C132.408 13.9261 132.083 13.9681 131.98 14.0482C131.881 14.1322 131.827 14.365 131.827 14.7505V17.1396C131.827 17.5441 131.877 17.7808 131.98 17.8533C132.079 17.9258 132.396 17.964 132.927 17.964H137.075C138.136 17.964 138.995 17.9029 139.644 17.7846C140.292 17.6663 140.72 17.5403 140.922 17.4144C140.85 17.7273 140.766 18.0937 140.674 18.5135C140.582 18.9372 140.51 19.3379 140.453 19.7234C140.399 20.1088 140.369 20.4371 140.369 20.7118H132.923C132.392 20.7118 132.076 20.7424 131.976 20.8073C131.877 20.8721 131.824 21.1126 131.824 21.5362V24.036C131.824 24.4558 131.869 24.7039 131.961 24.7764C132.053 24.8489 132.373 24.8871 132.923 24.8871H140.533C141.594 24.8871 142.453 24.765 143.101 24.5169C143.75 24.2688 144.178 24.0284 144.38 23.7879L143.83 26.8106V27.6617H127.396L127.408 27.6655Z" fill="white"/>
<path d="M152.284 27.6655C152.41 27.6655 152.539 27.5396 152.669 27.28C152.799 27.0243 152.86 26.6007 152.86 26.0168V14.7505C152.86 14.3497 152.814 14.1093 152.723 14.0368C152.631 13.9643 152.31 13.9261 151.761 13.9261H149.753C148.692 13.9261 147.834 14.0406 147.185 14.2696C146.532 14.4986 146.109 14.7123 145.906 14.9146L146.456 11.9186V11.1782H163.107V11.9186L163.657 14.9146C163.455 14.7123 163.027 14.4986 162.378 14.2696C161.729 14.0406 160.871 13.9261 159.81 13.9261H157.833C157.264 13.9261 156.936 13.9643 156.844 14.0368C156.753 14.1093 156.707 14.3497 156.707 14.7505V26.0168C156.707 26.6045 156.772 27.0243 156.898 27.28C157.028 27.5357 157.153 27.6655 157.283 27.6655H152.284Z" fill="white"/>
<path d="M174.362 27.9383C172.366 27.9383 170.599 27.8467 169.057 27.6636C167.515 27.4804 166.409 27.2972 165.733 27.114V26.3736L165.184 23.0761C165.497 23.37 166.038 23.6791 166.817 24.0112C167.596 24.3394 168.607 24.6218 169.855 24.8508C171.099 25.0798 172.557 25.1943 174.225 25.1943C175.416 25.1943 176.324 25.1103 176.946 24.9462C177.568 24.7821 177.996 24.5531 178.225 24.2592C178.454 23.9654 178.568 23.6181 178.568 23.2135C178.568 22.7365 178.392 22.3586 178.045 22.0724C177.698 21.79 177.11 21.5533 176.286 21.3701C175.461 21.187 174.355 21.0114 172.962 20.8473C171.24 20.6107 169.824 20.2977 168.718 19.9122C167.611 19.5268 166.79 18.9925 166.26 18.3055C165.729 17.6185 165.462 16.7178 165.462 15.5996C165.462 14.6646 165.714 13.8516 166.218 13.1532C166.722 12.4586 167.519 11.909 168.607 11.5045C169.699 11.1038 171.122 10.9015 172.881 10.9015C174.786 10.9015 176.427 10.9931 177.801 11.1763C179.175 11.3595 180.129 11.5427 180.659 11.7259V12.4663L181.484 15.2981C181.045 15.0615 180.408 14.8134 179.576 14.5577C178.744 14.302 177.759 14.0845 176.622 13.9127C175.484 13.7371 174.248 13.6532 172.912 13.6532C171.996 13.6532 171.271 13.7257 170.74 13.8745C170.21 14.0196 169.832 14.2333 169.615 14.5081C169.393 14.7829 169.286 15.1111 169.286 15.4966C169.286 15.9927 169.473 16.3896 169.851 16.6911C170.225 16.9926 170.813 17.2331 171.611 17.4048C172.408 17.5804 173.446 17.7407 174.729 17.8857C176.725 18.107 178.278 18.4314 179.385 18.8627C180.492 19.294 181.27 19.8512 181.72 20.5382C182.167 21.2251 182.392 22.0724 182.392 23.0799C182.392 23.8661 182.232 24.5684 181.911 25.1828C181.591 25.7973 181.102 26.3087 180.442 26.7209C179.782 27.1331 178.95 27.4384 177.942 27.6407C176.935 27.8429 175.744 27.9422 174.37 27.9422L174.362 27.9383Z" fill="white"/>
<path d="M183.923 27.6655C184.049 27.6655 184.178 27.5396 184.308 27.28C184.434 27.0243 184.499 26.6007 184.499 26.0168V12.827C184.499 12.2392 184.434 11.8232 184.308 11.5751C184.178 11.3271 184.053 11.1935 183.923 11.1782H188.953C188.861 11.1973 188.861 11.3385 188.953 11.6057C189.045 11.8728 189.338 12.2965 189.831 12.8842C189.976 13.0292 190.228 13.3193 190.586 13.7505C190.945 14.1818 191.388 14.697 191.918 15.3039C192.449 15.9069 193.014 16.5671 193.609 17.2808C194.204 17.9945 194.815 18.7082 195.437 19.4257C196.059 20.1394 196.655 20.8263 197.223 21.4866H197.25V12.827C197.25 12.2392 197.185 11.8232 197.059 11.5751C196.929 11.3271 196.803 11.1935 196.674 11.1782H201.673C201.544 11.1782 201.418 11.308 201.288 11.5637C201.158 11.8194 201.097 12.2507 201.097 12.8537V26.0168C201.097 26.6045 201.162 27.0243 201.288 27.28C201.414 27.5357 201.544 27.6655 201.673 27.6655H197.33C197.403 27.6464 197.384 27.5052 197.277 27.2381C197.166 26.9709 196.884 26.5473 196.426 25.9595C196.151 25.6313 195.788 25.1848 195.342 24.6276C194.891 24.0704 194.384 23.4368 193.815 22.7308C193.246 22.0247 192.647 21.2919 192.014 20.5325C191.38 19.773 190.758 19.0211 190.144 18.2807C189.529 17.5403 188.957 16.8457 188.426 16.2046H188.342V26.013C188.342 26.6007 188.407 27.0205 188.533 27.2762C188.659 27.5319 188.789 27.6617 188.919 27.6617H183.919L183.923 27.6655Z" fill="white"/>
<path d="M203.211 27.6636C203.303 27.6636 203.444 27.5377 203.639 27.2781C203.829 27.0224 204.055 26.5912 204.31 25.9882C204.436 25.7134 204.65 25.2401 204.944 24.5722C205.238 23.9044 205.581 23.1258 205.974 22.2365C206.367 21.3473 206.78 20.4199 207.211 19.4467C207.642 18.4773 208.05 17.5423 208.432 16.6454C208.818 15.7485 209.157 14.9585 209.447 14.283C209.741 13.6036 209.943 13.1189 210.05 12.8251C210.306 12.2373 210.443 11.8175 210.463 11.5618C210.482 11.3061 210.443 11.1763 210.352 11.1763H215.932C215.859 11.1763 215.832 11.2985 215.848 11.5465C215.867 11.7946 215.993 12.2182 216.233 12.8251C216.359 13.1189 216.561 13.5998 216.836 14.2677C217.111 14.9356 217.439 15.7141 217.825 16.6034C218.21 17.4926 218.607 18.42 219.019 19.3933C219.431 20.3626 219.828 21.2939 220.214 22.1831C220.599 23.0724 220.943 23.8547 221.244 24.5341C221.546 25.2134 221.763 25.6981 221.889 25.992C222.183 26.595 222.454 27.0263 222.698 27.282C222.946 27.5377 223.133 27.6674 223.263 27.6674H217.409C217.573 27.6483 217.71 27.5071 217.821 27.24C217.931 26.9728 217.92 26.5568 217.794 25.9882C217.756 25.8584 217.721 25.721 217.683 25.576C217.645 25.431 217.592 25.2745 217.519 25.1104C217.447 24.8547 217.359 24.6677 217.26 24.5455C217.16 24.4272 217.008 24.3547 216.806 24.3242C216.603 24.2975 216.294 24.2822 215.87 24.2822H210.375C209.936 24.2822 209.6 24.2975 209.371 24.3242C209.142 24.3509 208.982 24.4196 208.89 24.5303C208.799 24.6409 208.715 24.8241 208.642 25.0798C208.604 25.2249 208.57 25.3813 208.531 25.5455C208.493 25.7096 208.459 25.8584 208.421 25.9844C208.291 26.5721 208.26 26.9919 208.325 27.2476C208.39 27.5033 208.478 27.6407 208.585 27.6598H203.2L203.211 27.6636ZM211.096 21.5343H215.08C215.611 21.5343 215.905 21.4885 215.958 21.3969C216.012 21.3053 215.985 21.103 215.874 20.7939C215.638 20.2062 215.39 19.5993 215.134 18.9658C214.878 18.3323 214.626 17.7064 214.378 17.0843C214.13 16.4622 213.901 15.8744 213.691 15.3249C213.481 14.7753 213.302 14.3097 213.157 13.9242H213.104C212.81 14.6379 212.504 15.3936 212.184 16.1912C211.863 16.9889 211.565 17.7254 211.291 18.4048C211.016 19.0841 210.703 19.8512 210.356 20.7138C210.226 21.0076 210.188 21.2175 210.234 21.3473C210.279 21.4771 210.569 21.5381 211.1 21.5381L211.096 21.5343Z" fill="white"/>
<path d="M224.816 27.6655C224.946 27.6655 225.068 27.5396 225.186 27.28C225.305 27.0243 225.366 26.6007 225.366 26.0168V12.827C225.366 12.2392 225.301 11.8232 225.175 11.5751C225.045 11.3271 224.919 11.1935 224.79 11.1782H233.804C235.399 11.1782 236.674 11.4034 237.636 11.8499C238.598 12.3003 239.3 12.9338 239.739 13.7582C240.178 14.5825 240.399 15.5634 240.399 16.6969C240.399 17.8304 240.178 18.8532 239.739 19.7043C239.3 20.5554 238.598 21.208 237.636 21.6545C236.674 22.1049 235.396 22.3262 233.804 22.3262H229.217V26.0091C229.217 26.5969 229.282 27.0167 229.408 27.2724C229.533 27.5281 229.663 27.6579 229.793 27.6579H224.82L224.816 27.6655ZM230.339 19.586H232.484C233.602 19.586 234.457 19.4753 235.052 19.2578C235.647 19.0364 236.056 18.712 236.273 18.2807C236.495 17.8495 236.602 17.3228 236.602 16.7007C236.602 16.0786 236.479 15.5672 236.231 15.1626C235.983 14.7581 235.575 14.4604 235.01 14.2696C234.441 14.0788 233.663 13.9795 232.674 13.9795H230.339C229.77 13.9795 229.442 14.0101 229.35 14.0749C229.259 14.1398 229.213 14.3536 229.213 14.7199V18.815C229.213 19.1814 229.259 19.4028 229.35 19.4753C229.442 19.5478 229.77 19.586 230.339 19.586Z" fill="white"/>
</svg>
