<svg width="242" height="35" viewBox="0 0 242 35" fill="none" xmlns="http://www.w3.org/2000/svg">
<path d="M18.1798 33.5897L6.63865 32.5786C3.96498 32.3435 3.04129 31.571 4.58301 30.8622L20.1313 23.7078C21.673 22.9991 25.1226 22.6095 27.7963 22.8412L39.3374 23.8523C42.011 24.0874 42.9347 24.8599 41.393 25.5686L25.8447 32.7231C24.303 33.4318 20.8534 33.8214 18.1798 33.5897Z" fill="#F8F8F8" stroke="white" stroke-miterlimit="10"/>
<path d="M15.1035 32.7499L5.53066 31.9136C3.3138 31.7188 1.5 29.7471 1.5 27.5302V5.19367C1.5 2.97681 3.3138 1.32088 5.53066 1.5157L15.1035 2.35206C17.3203 2.54687 19.1341 4.51854 19.1341 6.7354V29.072C19.1341 31.2888 17.3203 32.9448 15.1035 32.7499Z" fill="#181818" stroke="#F8F8F8" stroke-width="3" stroke-miterlimit="10"/>
<path d="M61.3183 26.0948C59.3223 26.0948 57.5553 26.0032 56.0134 25.8201C54.4753 25.6369 53.3647 25.4537 52.6892 25.2705V24.5301L52.1396 21.2326C52.4526 21.5265 52.9945 21.8356 53.7731 22.1677C54.5517 22.4959 55.563 22.7783 56.811 23.0073C58.0552 23.2363 59.5131 23.3508 61.1809 23.3508C62.3717 23.3508 63.28 23.2668 63.9021 23.1027C64.5242 22.9386 64.9516 22.7096 65.1806 22.4157C65.4096 22.1219 65.5241 21.7746 65.5241 21.37C65.5241 20.893 65.3486 20.5151 65.0013 20.2289C64.654 19.9465 64.0662 19.7098 63.2418 19.5266C62.4175 19.3435 61.3107 19.1679 59.9177 19.0038C58.1964 18.7672 56.7805 18.4542 55.6737 18.0687C54.5669 17.6833 53.7464 17.149 53.2159 16.462C52.6854 15.775 52.4183 14.8743 52.4183 13.7561C52.4183 12.8211 52.6701 12.0081 53.1739 11.3097C53.6777 10.6151 54.4753 10.0655 55.563 9.66099C56.6508 9.26026 58.0781 9.05798 59.8375 9.05798C61.742 9.05798 63.3831 9.14958 64.757 9.33277C66.1309 9.51596 67.0851 9.69916 67.6156 9.88235V10.6227L68.4399 13.4546C68.001 13.218 67.3637 12.9699 66.5317 12.7142C65.6997 12.4585 64.715 12.2409 63.5777 12.0692C62.4404 11.8936 61.2038 11.8097 59.8681 11.8097C58.9521 11.8097 58.227 11.8822 57.6965 12.031C57.166 12.1761 56.7881 12.3898 56.5706 12.6646C56.3492 12.9394 56.2424 13.2676 56.2424 13.653C56.2424 14.1492 56.4294 14.5461 56.8072 14.8476C57.1812 15.1491 57.769 15.3896 58.5666 15.5613C59.3643 15.7369 60.4024 15.8972 61.6847 16.0422C63.6807 16.2635 65.2341 16.5879 66.3408 17.0192C67.4476 17.4505 68.2262 18.0077 68.6765 18.6946C69.1269 19.3816 69.3483 20.2289 69.3483 21.2364C69.3483 22.0226 69.188 22.7249 68.8674 23.3393C68.5468 23.9538 68.0583 24.4652 67.398 24.8774C66.7378 25.2896 65.9058 25.5949 64.8982 25.7972C63.8907 25.9994 62.6999 26.0987 61.326 26.0987L61.3183 26.0948Z" fill="white"/>
<path d="M77.2519 25.822C77.3816 25.822 77.5076 25.6961 77.6374 25.4365C77.7633 25.1808 77.8282 24.7572 77.8282 24.1733V12.907C77.8282 12.5062 77.7824 12.2658 77.6908 12.1933C77.5992 12.1208 77.2786 12.0826 76.729 12.0826H74.7215C73.6606 12.0826 72.8018 12.1971 72.153 12.4261C71.5042 12.6551 71.0768 12.8688 70.8745 13.0711L71.4241 10.0751V9.33472H88.0755V10.0751L88.6251 13.0711C88.4228 12.8688 87.9992 12.6551 87.3465 12.4261C86.6977 12.1971 85.839 12.0826 84.778 12.0826H82.8011C82.2324 12.0826 81.9042 12.1208 81.8126 12.1933C81.721 12.2658 81.6752 12.5062 81.6752 12.907V24.1733C81.6752 24.761 81.7401 25.1808 81.866 25.4365C81.9958 25.6922 82.1217 25.822 82.2515 25.822H77.2519Z" fill="white"/>
<path d="M90.1786 25.822C90.3083 25.822 90.4305 25.6961 90.5488 25.4365C90.6671 25.1808 90.7281 24.7572 90.7281 24.1733V10.9834C90.7281 10.3957 90.6633 9.97971 90.5373 9.73163C90.4076 9.48356 90.2816 9.34998 90.1519 9.33472H99.1664C100.815 9.33472 102.12 9.53699 103.082 9.93772C104.044 10.3423 104.731 10.93 105.143 11.7086C105.555 12.4871 105.761 13.4375 105.761 14.5519C105.761 15.3381 105.616 16.0556 105.322 16.6967C105.029 17.3379 104.593 17.8722 104.017 18.3035C103.441 18.7348 102.75 19.0324 101.941 19.1966V19.2805C102.838 19.5935 103.704 20.1774 104.536 21.0399C105.368 21.9025 106.109 22.8528 106.75 23.8985C107.17 24.5778 107.555 25.0625 107.902 25.3564C108.25 25.6503 108.517 25.8067 108.7 25.822H102.159C102.38 25.8029 102.555 25.6808 102.693 25.4518C102.83 25.2228 102.781 24.8412 102.54 24.3107C102.155 23.4329 101.666 22.6619 101.071 22.0017C100.475 21.3414 99.758 20.8338 98.9145 20.4751C98.0711 20.1163 97.1017 19.9408 96.0026 19.9408H95.701C95.1324 19.9408 94.8042 19.9866 94.7126 20.0782C94.621 20.1698 94.5752 20.3988 94.5752 20.7651V24.1733C94.5752 24.761 94.6401 25.1808 94.766 25.4365C94.8919 25.6922 95.0217 25.822 95.1515 25.822H90.1786ZM95.701 17.357H98.3115C99.5748 17.357 100.502 17.1318 101.086 16.6853C101.67 16.2388 101.964 15.5251 101.964 14.5557C101.964 14.0595 101.853 13.6321 101.636 13.2657C101.414 12.8993 101.063 12.6207 100.579 12.4261C100.094 12.2353 99.4298 12.136 98.5863 12.136H95.701C95.1324 12.136 94.8042 12.1627 94.7126 12.2162C94.621 12.2696 94.5752 12.4833 94.5752 12.8497V16.6128C94.5752 16.9792 94.621 17.1929 94.7126 17.2578C94.8042 17.3227 95.1324 17.3532 95.701 17.3532V17.357Z" fill="white"/>
<path d="M110.238 25.822C110.364 25.822 110.494 25.6961 110.624 25.4365C110.75 25.1808 110.815 24.7572 110.815 24.1733V10.9834C110.815 10.3957 110.75 9.97971 110.624 9.73163C110.494 9.48356 110.368 9.34998 110.238 9.33472H126.092V10.0751L126.642 13.0711C126.184 12.8688 125.379 12.6551 124.222 12.4261C123.07 12.1971 121.677 12.0826 120.047 12.0826H115.788C115.238 12.0826 114.914 12.1246 114.811 12.2047C114.711 12.2887 114.658 12.5215 114.658 12.907V15.2961C114.658 15.7006 114.708 15.9373 114.811 16.0098C114.91 16.0823 115.227 16.1205 115.757 16.1205H119.906C120.967 16.1205 121.825 16.0594 122.474 15.9411C123.123 15.8228 123.55 15.6968 123.753 15.5709C123.68 15.8838 123.596 16.2502 123.505 16.67C123.413 17.0937 123.341 17.4944 123.283 17.8799C123.23 18.2653 123.199 18.5935 123.199 18.8683H115.753C115.223 18.8683 114.906 18.8989 114.807 18.9637C114.708 19.0286 114.654 19.2691 114.654 19.6927V22.1925C114.654 22.6123 114.7 22.8604 114.792 22.9329C114.883 23.0054 115.204 23.0436 115.753 23.0436H123.363C124.424 23.0436 125.283 22.9215 125.932 22.6734C126.581 22.4253 127.008 22.1849 127.21 21.9444L126.661 24.9671V25.8182H110.227L110.238 25.822Z" fill="white"/>
<path d="M128.748 25.822C128.874 25.822 129.004 25.6961 129.134 25.4365C129.26 25.1808 129.325 24.7572 129.325 24.1733V10.9834C129.325 10.3957 129.26 9.97971 129.134 9.73163C129.004 9.48356 128.878 9.34998 128.748 9.33472H144.602V10.0751L145.152 13.0711C144.694 12.8688 143.888 12.6551 142.732 12.4261C141.579 12.1971 140.186 12.0826 138.557 12.0826H134.297C133.748 12.0826 133.423 12.1246 133.32 12.2047C133.221 12.2887 133.168 12.5215 133.168 12.907V15.2961C133.168 15.7006 133.217 15.9373 133.32 16.0098C133.42 16.0823 133.736 16.1205 134.267 16.1205H138.415C139.476 16.1205 140.335 16.0594 140.984 15.9411C141.633 15.8228 142.06 15.6968 142.262 15.5709C142.19 15.8838 142.106 16.2502 142.014 16.67C141.923 17.0937 141.85 17.4944 141.793 17.8799C141.74 18.2653 141.709 18.5935 141.709 18.8683H134.263C133.733 18.8683 133.416 18.8989 133.317 18.9637C133.217 19.0286 133.164 19.2691 133.164 19.6927V22.1925C133.164 22.6123 133.21 22.8604 133.301 22.9329C133.393 23.0054 133.714 23.0436 134.263 23.0436H141.873C142.934 23.0436 143.793 22.9215 144.442 22.6734C145.091 22.4253 145.518 22.1849 145.72 21.9444L145.171 24.9671V25.8182H128.737L128.748 25.822Z" fill="white"/>
<path d="M153.624 25.822C153.75 25.822 153.88 25.6961 154.009 25.4365C154.139 25.1808 154.2 24.7572 154.2 24.1733V12.907C154.2 12.5062 154.154 12.2658 154.063 12.1933C153.971 12.1208 153.651 12.0826 153.101 12.0826H151.094C150.033 12.0826 149.174 12.1971 148.525 12.4261C147.872 12.6551 147.449 12.8688 147.247 13.0711L147.796 10.0751V9.33472H164.448V10.0751L164.997 13.0711C164.795 12.8688 164.367 12.6551 163.719 12.4261C163.07 12.1971 162.211 12.0826 161.15 12.0826H159.173C158.604 12.0826 158.276 12.1208 158.185 12.1933C158.093 12.2658 158.047 12.5062 158.047 12.907V24.1733C158.047 24.761 158.112 25.1808 158.238 25.4365C158.368 25.6922 158.494 25.822 158.624 25.822H153.624Z" fill="white"/>
<path d="M175.703 26.0948C173.707 26.0948 171.94 26.0032 170.398 25.8201C168.856 25.6369 167.75 25.4537 167.074 25.2705V24.5301L166.524 21.2326C166.837 21.5265 167.379 21.8356 168.158 22.1677C168.936 22.4959 169.948 22.7783 171.196 23.0073C172.44 23.2363 173.898 23.3508 175.566 23.3508C176.756 23.3508 177.665 23.2668 178.287 23.1027C178.909 22.9386 179.336 22.7096 179.565 22.4157C179.794 22.1219 179.909 21.7746 179.909 21.37C179.909 20.893 179.733 20.5151 179.386 20.2289C179.039 19.9465 178.451 19.7098 177.627 19.5266C176.802 19.3435 175.695 19.1679 174.302 19.0038C172.581 18.7672 171.165 18.4542 170.058 18.0687C168.952 17.6833 168.131 17.149 167.601 16.462C167.07 15.775 166.803 14.8743 166.803 13.7561C166.803 12.8211 167.055 12.0081 167.559 11.3097C168.062 10.6151 168.86 10.0655 169.948 9.66099C171.039 9.26026 172.463 9.05798 174.222 9.05798C176.127 9.05798 177.768 9.14958 179.142 9.33277C180.516 9.51596 181.47 9.69916 182 9.88235V10.6227L182.825 13.4546C182.386 13.218 181.748 12.9699 180.916 12.7142C180.084 12.4585 179.1 12.2409 177.962 12.0692C176.825 11.8936 175.589 11.8097 174.253 11.8097C173.337 11.8097 172.612 11.8822 172.081 12.031C171.551 12.1761 171.173 12.3898 170.955 12.6646C170.734 12.9394 170.627 13.2676 170.627 13.653C170.627 14.1492 170.814 14.5461 171.192 14.8476C171.566 15.1491 172.154 15.3896 172.951 15.5613C173.749 15.7369 174.787 15.8972 176.069 16.0422C178.066 16.2635 179.619 16.5879 180.726 17.0192C181.832 17.4505 182.611 18.0077 183.061 18.6946C183.508 19.3816 183.733 20.2289 183.733 21.2364C183.733 22.0226 183.573 22.7249 183.252 23.3393C182.932 23.9538 182.443 24.4652 181.783 24.8774C181.123 25.2896 180.291 25.5949 179.283 25.7972C178.275 25.9994 177.085 26.0987 175.711 26.0987L175.703 26.0948Z" fill="white"/>
<path d="M185.263 25.822C185.389 25.822 185.519 25.6961 185.649 25.4365C185.775 25.1808 185.839 24.7572 185.839 24.1733V10.9834C185.839 10.3957 185.775 9.97971 185.649 9.73163C185.519 9.48356 185.393 9.34998 185.263 9.33472H190.293C190.202 9.3538 190.202 9.49501 190.293 9.76216C190.385 10.0293 190.679 10.453 191.171 11.0407C191.316 11.1857 191.568 11.4758 191.927 11.907C192.285 12.3383 192.728 12.8535 193.259 13.4604C193.789 14.0634 194.354 14.7236 194.949 15.4373C195.545 16.151 196.155 16.8647 196.777 17.5822C197.4 18.2959 197.995 18.9828 198.564 19.6431H198.59V10.9834C198.59 10.3957 198.525 9.97971 198.399 9.73163C198.27 9.48356 198.144 9.34998 198.014 9.33472H203.014C202.884 9.33472 202.758 9.46448 202.628 9.72018C202.498 9.97589 202.437 10.4072 202.437 11.0102V24.1733C202.437 24.761 202.502 25.1808 202.628 25.4365C202.754 25.6922 202.884 25.822 203.014 25.822H198.67C198.743 25.8029 198.724 25.6617 198.617 25.3945C198.506 25.1274 198.224 24.7038 197.766 24.116C197.491 23.7878 197.129 23.3413 196.682 22.7841C196.232 22.2269 195.724 21.5933 195.155 20.8873C194.587 20.1812 193.988 19.4484 193.354 18.689C192.721 17.9295 192.098 17.1776 191.484 16.4372C190.87 15.6968 190.297 15.0022 189.767 14.361H189.683V24.1695C189.683 24.7572 189.747 25.177 189.873 25.4327C189.999 25.6884 190.129 25.8182 190.259 25.8182H185.259L185.263 25.822Z" fill="white"/>
<path d="M204.551 25.82C204.643 25.82 204.784 25.6941 204.979 25.4346C205.17 25.1789 205.395 24.7476 205.651 24.1446C205.777 23.8698 205.99 23.3966 206.284 22.7287C206.578 22.0608 206.922 21.2822 207.315 20.393C207.708 19.5037 208.12 18.5763 208.551 17.6031C208.982 16.6337 209.391 15.6987 209.772 14.8018C210.158 13.9049 210.498 13.1149 210.788 12.4394C211.082 11.7601 211.284 11.2754 211.391 10.9815C211.646 10.3938 211.784 9.97394 211.803 9.71823C211.822 9.46252 211.784 9.33276 211.692 9.33276H217.272C217.199 9.33276 217.173 9.45489 217.188 9.70296C217.207 9.95104 217.333 10.3747 217.573 10.9815C217.699 11.2754 217.902 11.7562 218.176 12.4241C218.451 13.092 218.779 13.8706 219.165 14.7598C219.55 15.6491 219.947 16.5765 220.359 17.5497C220.772 18.5191 221.169 19.4503 221.554 20.3395C221.939 21.2288 222.283 22.0112 222.584 22.6905C222.886 23.3699 223.103 23.8545 223.229 24.1484C223.523 24.7514 223.794 25.1827 224.039 25.4384C224.287 25.6941 224.474 25.8239 224.603 25.8239H218.749C218.913 25.8048 219.05 25.6636 219.161 25.3964C219.272 25.1293 219.26 24.7133 219.134 24.1446C219.096 24.0148 219.062 23.8774 219.024 23.7324C218.985 23.5874 218.932 23.4309 218.86 23.2668C218.787 23.0111 218.699 22.8241 218.6 22.702C218.501 22.5837 218.348 22.5111 218.146 22.4806C217.944 22.4539 217.634 22.4386 217.211 22.4386H211.715C211.276 22.4386 210.94 22.4539 210.711 22.4806C210.482 22.5073 210.322 22.576 210.23 22.6867C210.139 22.7974 210.055 22.9806 209.982 23.2363C209.944 23.3813 209.91 23.5378 209.872 23.7019C209.834 23.866 209.799 24.0148 209.761 24.1408C209.631 24.7285 209.601 25.1483 209.666 25.404C209.73 25.6598 209.818 25.7971 209.925 25.8162H204.54L204.551 25.82ZM212.436 19.6907H216.421C216.951 19.6907 217.245 19.6449 217.299 19.5534C217.352 19.4618 217.325 19.2595 217.215 18.9503C216.978 18.3626 216.73 17.7558 216.474 17.1222C216.219 16.4887 215.967 15.8628 215.719 15.2407C215.47 14.6186 215.242 14.0309 215.032 13.4813C214.822 12.9317 214.642 12.4661 214.497 12.0806H214.444C214.15 12.7943 213.845 13.55 213.524 14.3476C213.203 15.1453 212.906 15.8819 212.631 16.5612C212.356 17.2406 212.043 18.0077 211.696 18.8702C211.566 19.1641 211.528 19.374 211.574 19.5037C211.62 19.6335 211.91 19.6946 212.44 19.6946L212.436 19.6907Z" fill="white"/>
<path d="M226.157 25.822C226.286 25.822 226.408 25.6961 226.527 25.4365C226.645 25.1808 226.706 24.7572 226.706 24.1733V10.9834C226.706 10.3957 226.641 9.97971 226.515 9.73163C226.386 9.48356 226.26 9.34998 226.13 9.33472H235.144C236.74 9.33472 238.014 9.55989 238.976 10.0064C239.938 10.4568 240.64 11.0903 241.079 11.9147C241.518 12.739 241.739 13.7199 241.739 14.8534C241.739 15.9869 241.518 17.0097 241.079 17.8608C240.64 18.7119 239.938 19.3645 238.976 19.811C238.014 20.2614 236.736 20.4827 235.144 20.4827H230.557V24.1656C230.557 24.7534 230.622 25.1732 230.748 25.4289C230.874 25.6846 231.004 25.8144 231.133 25.8144H226.16L226.157 25.822ZM231.679 17.7425H233.824C234.942 17.7425 235.797 17.6318 236.392 17.4142C236.988 17.1929 237.396 16.8685 237.614 16.4372C237.835 16.006 237.942 15.4793 237.942 14.8572C237.942 14.2351 237.82 13.7237 237.572 13.3191C237.324 12.9146 236.915 12.6169 236.35 12.4261C235.782 12.2353 235.003 12.136 234.015 12.136H231.679C231.11 12.136 230.782 12.1666 230.691 12.2314C230.599 12.2963 230.553 12.51 230.553 12.8764V16.9715C230.553 17.3379 230.599 17.5593 230.691 17.6318C230.782 17.7043 231.11 17.7425 231.679 17.7425Z" fill="white"/>
</svg>
