<svg width="52" height="52" viewBox="0 0 52 52" fill="none" xmlns="http://www.w3.org/2000/svg">
<g clip-path="url(#clip0_387_358)">
<path d="M42.2417 17.5119L25.9982 33.3459L9.75473 17.5119C9.46453 17.2284 9.07493 17.0697 8.66923 17.0697C8.26354 17.0697 7.87394 17.2284 7.58373 17.5119C7.44321 17.6496 7.33157 17.8139 7.25536 17.9953C7.17915 18.1766 7.13989 18.3714 7.13989 18.5681C7.13989 18.7649 7.17915 18.9596 7.25536 19.141C7.33157 19.3223 7.44321 19.4867 7.58373 19.6244L24.864 36.4724C25.1675 36.7682 25.5745 36.9337 25.9982 36.9337C26.422 36.9337 26.829 36.7682 27.1325 36.4724L44.4127 19.6276C44.5543 19.4898 44.6667 19.3251 44.7435 19.1431C44.8203 18.9611 44.8599 18.7656 44.8599 18.5681C44.8599 18.3706 44.8203 18.1751 44.7435 17.9931C44.6667 17.8111 44.5543 17.6464 44.4127 17.5086C44.1225 17.2251 43.7329 17.0664 43.3272 17.0664C42.9215 17.0664 42.5319 17.2251 42.2417 17.5086V17.5119Z" fill="white"/>
</g>
<defs>
<clipPath id="clip0_387_358">
<rect width="52" height="52" fill="white"/>
</clipPath>
</defs>
</svg>
