<svg width="69" height="69" viewBox="0 0 69 69" fill="none" xmlns="http://www.w3.org/2000/svg">
<rect width="69" height="69" rx="34.5" fill="#C7C7CC"/>
<g clip-path="url(#clip0_505_747)">
<path d="M17.7585 41.4881L34.002 25.6541L50.2455 41.4881C50.5357 41.7716 50.9253 41.9303 51.331 41.9303C51.7367 41.9303 52.1263 41.7716 52.4165 41.4881C52.557 41.3504 52.6687 41.1861 52.7449 41.0047C52.8211 40.8234 52.8604 40.6286 52.8604 40.4319C52.8604 40.2351 52.8211 40.0404 52.7449 39.859C52.6687 39.6777 52.557 39.5133 52.4165 39.3756L35.1363 22.5276C34.8328 22.2318 34.4258 22.0663 34.002 22.0663C33.5782 22.0663 33.1712 22.2318 32.8678 22.5276L15.5875 39.3724C15.446 39.5102 15.3335 39.6749 15.2567 39.8569C15.1799 40.0389 15.1403 40.2344 15.1403 40.4319C15.1403 40.6294 15.1799 40.8249 15.2567 41.0069C15.3335 41.1889 15.446 41.3536 15.5875 41.4914C15.8777 41.7749 16.2673 41.9336 16.673 41.9336C17.0787 41.9336 17.4683 41.7749 17.7585 41.4914L17.7585 41.4881Z" fill="white"/>
</g>
<defs>
<clipPath id="clip0_505_747">
<rect width="52" height="52" fill="white" transform="translate(8 5)"/>
</clipPath>
</defs>
</svg>
