<svg width="80" height="113" viewBox="0 0 80 113" fill="none" xmlns="http://www.w3.org/2000/svg">
<path d="M40 1.99854C48.4791 1.99854 55.3533 8.87206 55.3535 17.3511C55.3535 25.8303 48.4792 32.7046 40 32.7046C31.521 32.7043 24.6475 25.8301 24.6475 17.3511C24.6477 8.87221 31.5211 1.99878 40 1.99854Z" fill="white" stroke="white"/>
<path d="M48.6487 54.2434C49.6489 52.7858 51.6471 52.0241 53.425 52.8352C55.1502 53.6222 56.0949 55.759 54.9426 57.551C52.6041 61.1879 49.1994 64.0974 45.1399 65.9055C41.0808 67.7134 36.5762 68.327 32.1887 67.6995C30.141 67.4066 28.9665 65.4142 29.4778 63.5413C29.9993 61.6314 31.9464 60.696 33.6858 60.8948C36.5725 61.2246 39.512 60.7824 42.1692 59.5989C44.8262 58.4155 47.0636 56.5533 48.6487 54.2434Z" fill="white" stroke="white" stroke-width="2.5"/>
<path d="M75.7778 1.7478C77.6921 1.74787 79.3649 3.25235 79.2446 5.22339C78.7217 13.7758 75.7459 22.0421 70.6235 29.1003C65.5015 36.1582 58.4549 41.7019 50.2827 45.1453C48.4731 45.9078 46.412 44.9967 45.7222 43.2195C45.0187 41.4064 46.0087 39.4741 47.7397 38.7292C54.599 35.7781 60.5059 31.0915 64.812 25.158C69.1178 19.2248 71.6405 12.2966 72.1372 5.12573C72.2665 3.25873 73.8336 1.7478 75.7778 1.7478Z" fill="white" stroke="white" stroke-width="1.5"/>
<path d="M1.03223 3.66357C1.25344 1.70748 3.15347 0.492317 5.04004 0.79541C6.96287 1.10454 8.25205 2.85056 8.05664 4.71533C7.58711 9.19535 7.91666 13.7263 9.03711 18.1128C10.3754 23.3518 12.8146 28.2768 16.208 32.5864C19.6017 36.8963 23.879 40.501 28.7793 43.1782C32.882 45.4197 37.349 46.9721 41.9863 47.7729C43.8414 48.0934 45.2857 49.7275 45.0596 51.6519C44.8363 53.551 43.0519 54.912 41.1084 54.5913C35.5528 53.6744 30.1976 51.837 25.2861 49.1538C19.5504 46.0202 14.5389 41.7981 10.5596 36.7446C6.58014 31.6909 3.71614 25.911 2.14453 19.7583C0.798779 14.4898 0.42444 9.04278 1.03223 3.66357Z" fill="white" stroke="white" stroke-width="1.5"/>
<mask id="path-5-inside-1_441_729" fill="white">
<path fill-rule="evenodd" clip-rule="evenodd" d="M43.0178 82.1653C42.5822 82.2935 42.1548 82.4405 41.7353 82.6088C41.3238 82.7397 40.907 82.86 40.4902 82.9749L40.573 82.9535C40.9685 82.8439 41.3452 82.7344 41.7353 82.6088C42.1681 82.4699 42.5956 82.3229 43.0178 82.1653Z"/>
</mask>
<path fill-rule="evenodd" clip-rule="evenodd" d="M43.0178 82.1653C42.5822 82.2935 42.1548 82.4405 41.7353 82.6088C41.3238 82.7397 40.907 82.86 40.4902 82.9749L40.573 82.9535C40.9685 82.8439 41.3452 82.7344 41.7353 82.6088C42.1681 82.4699 42.5956 82.3229 43.0178 82.1653Z" fill="white"/>
<path d="M43.0178 82.1653L43.3676 83.1021L42.7353 81.206L43.0178 82.1653ZM40.4902 82.9749L40.2245 82.0108L40.7401 83.9431L40.4902 82.9749ZM40.573 82.9535L40.8229 83.9218L40.8315 83.9195L40.84 83.9172L40.573 82.9535ZM43.0178 82.1653L42.7353 81.206C42.2713 81.3427 41.8136 81.4999 41.3629 81.6807L41.7353 82.6088L42.1077 83.5369C42.4959 83.3811 42.8932 83.2444 43.3002 83.1246L43.0178 82.1653ZM41.7353 82.6088L41.4321 81.6559C41.0374 81.7815 40.6342 81.8979 40.2245 82.0108L40.4902 82.9749L40.7559 83.9389C41.1799 83.822 41.6102 83.698 42.0385 83.5617L41.7353 82.6088ZM40.4902 82.9749L40.7401 83.9431L40.8229 83.9218L40.573 82.9535L40.3232 81.9852L40.2403 82.0066L40.4902 82.9749ZM40.573 82.9535L40.84 83.9172C41.2432 83.8055 41.6341 83.6919 42.0417 83.5607L41.7353 82.6088L41.4288 81.6569C41.0563 81.7769 40.6937 81.8824 40.3061 81.9898L40.573 82.9535ZM41.7353 82.6088L42.0409 83.561C42.4866 83.4179 42.929 83.2659 43.3676 83.1021L43.0178 82.1653L42.6679 81.2285C42.2622 81.38 41.8496 81.5219 41.4296 81.6567L41.7353 82.6088Z" fill="white" mask="url(#path-5-inside-1_441_729)"/>
<mask id="path-7-inside-2_441_729" fill="white">
<path fill-rule="evenodd" clip-rule="evenodd" d="M41.6056 78.9889C41.7713 78.9302 41.9343 78.8714 42.0946 78.8073C41.4694 78.9889 40.8548 79.2027 40.2563 79.4485C40.5877 79.347 40.919 79.2374 41.2449 79.1225L41.6056 78.9889Z"/>
</mask>
<path fill-rule="evenodd" clip-rule="evenodd" d="M41.6056 78.9889C41.7713 78.9302 41.9343 78.8714 42.0946 78.8073C41.4694 78.9889 40.8548 79.2027 40.2563 79.4485C40.5877 79.347 40.919 79.2374 41.2449 79.1225L41.6056 78.9889Z" fill="white"/>
<path d="M42.0946 78.8073L41.9122 78.3417L42.2346 79.2873L42.0946 78.8073ZM42.1587 78.7886L42.0193 78.3084L42.0187 78.3086L42.1587 78.7886ZM47.7722 75.6946L47.4773 75.2908C45.8037 76.5133 43.9823 77.532 42.0473 78.3027L42.2323 78.7672L42.4174 79.2317C44.4333 78.4287 46.3283 77.3685 48.0671 76.0983L47.7722 75.6946ZM42.2323 78.7672L42.0473 78.3027C42.0576 78.2986 42.0641 78.2968 42.0636 78.297C42.0622 78.2974 42.0592 78.2982 42.0464 78.3012C42.0364 78.3036 42.0164 78.3084 41.9953 78.3142C41.9732 78.3203 41.9443 78.3291 41.9122 78.3417L42.0946 78.8073L42.277 79.2728C42.2672 79.2767 42.2611 79.2783 42.2621 79.278C42.264 79.2774 42.2673 79.2766 42.2806 79.2734C42.2988 79.269 42.3566 79.2559 42.4174 79.2317L42.2323 78.7672ZM42.2323 78.7672L42.093 78.287L42.0193 78.3084L42.1587 78.7886L42.298 79.2688L42.3717 79.2474L42.2323 78.7672ZM42.1587 78.7886L42.0187 78.3086L41.9546 78.3273L42.0946 78.8073L42.2346 79.2873L42.2987 79.2686L42.1587 78.7886ZM41.6056 78.9889L41.2712 78.0464L41.2583 78.0512L41.6056 78.9889ZM42.0946 78.8073L42.466 79.7357L41.8155 77.847L42.0946 78.8073ZM40.2563 79.4485L39.8764 78.5235L40.5493 80.4046L40.2563 79.4485ZM41.2449 79.1225L41.5773 80.0657L41.5848 80.063L41.5922 80.0603L41.2449 79.1225ZM41.6056 78.9889L41.94 79.9314C42.1071 79.8721 42.286 79.8077 42.466 79.7357L42.0946 78.8073L41.7232 77.8788C41.5825 77.935 41.4354 77.9882 41.2712 78.0465L41.6056 78.9889ZM42.0946 78.8073L41.8155 77.847C41.1572 78.0383 40.5089 78.2637 39.8764 78.5235L40.2563 79.4485L40.6363 80.3735C41.2008 80.1417 41.7815 79.9396 42.3736 79.7675L42.0946 78.8073ZM40.2563 79.4485L40.5493 80.4046C40.8946 80.2988 41.2391 80.1849 41.5773 80.0657L41.2449 79.1225L40.9125 78.1794C40.5988 78.29 40.2807 78.3951 39.9633 78.4924L40.2563 79.4485ZM41.2449 79.1225L41.5922 80.0603L41.9529 79.9267L41.6056 78.9889L41.2583 78.0512L40.8976 78.1848L41.2449 79.1225Z" fill="white" mask="url(#path-7-inside-2_441_729)"/>
<path d="M55.177 65.8378C56.6317 66.6049 57.2667 68.4648 56.3508 69.9598C54.384 73.1702 51.7951 75.9712 48.7192 78.2155L48.7196 78.2168C47.8779 78.8328 47.0052 79.4041 46.1024 79.9307L46.1006 79.932C44.682 80.7569 43.193 81.4682 41.647 82.0515L41.5998 82.0697L41.5519 82.0831L41.3941 82.1291L41.3937 82.1278C40.9964 82.245 40.6091 82.379 40.231 82.5307L40.2293 82.532C39.2647 82.9168 38.3493 83.4167 37.5015 84.0177C36.7472 84.5548 36.0502 85.1722 35.4205 85.864L35.1546 86.1654C33.5795 88.0034 32.5488 90.2395 32.1751 92.6225L32.1094 93.1012L32.109 93.1021C31.8018 95.6668 32.2632 98.2633 33.431 100.565L33.6094 100.905C34.5288 102.589 35.8047 104.045 37.3425 105.175C38.5488 106.061 39.126 107.786 38.3015 109.254C37.5105 110.662 35.6304 111.28 34.169 110.259C31.6093 108.471 29.5224 106.073 28.1003 103.274C27.1023 101.31 26.4584 99.1997 26.1839 97.0359C25.9893 95.5019 25.9838 93.9428 26.1696 92.3934C26.6185 88.6538 28.163 85.1333 30.6109 82.2735L30.6114 82.2726C31.1606 81.6319 31.7508 81.0307 32.3756 80.4746C32.7368 80.1505 33.1096 79.8406 33.4936 79.5448L33.4976 79.5414C33.9803 79.173 34.48 78.8269 34.9966 78.5044L34.9979 78.504C35.891 77.9476 36.8315 77.4608 37.8113 77.0568L37.866 77.0348L37.9214 77.0176C38.2351 76.9215 38.5501 76.8173 38.8606 76.7078L39.2031 76.5814L39.2115 76.5781L39.2194 76.5757C39.3831 76.5176 39.5259 76.4655 39.6615 76.4112L39.6699 76.4079C40.693 76.0068 41.6857 75.537 42.6405 75.0038L43.265 74.6419C43.8832 74.2712 44.4844 73.8739 45.0666 73.4497C46.745 72.2232 48.2413 70.7948 49.5205 69.1989L49.9369 68.6643C50.3444 68.1241 50.7273 67.5654 51.086 66.9904C51.9195 65.6541 53.6828 65.05 55.177 65.8378Z" fill="white" stroke="white" stroke-width="2.5"/>
</svg>
